<?xml version="1.0" encoding="utf-8"?>
<!-- Generator: Adobe Illustrator 27.1.0, SVG Export Plug-In . SVG Version: 6.00 Build 0)  -->
<svg version="1.1" id="Calque_1" xmlns="http://www.w3.org/2000/svg" xmlns:xlink="http://www.w3.org/1999/xlink" x="0px" y="0px"
	 viewBox="0 0 240.94 155.91" style="enable-background:new 0 0 240.94 155.91;" xml:space="preserve">
<style type="text/css">
	.st0{fill:#587377;}
	.st1{fill:#D8B479;}
</style>
<g>
	<g>
		<polygon points="110.72,53.49 110.72,67.86 88.93,80.09 88.93,84.31 110.72,73.46 110.72,85.17 89.58,92.65 89.58,96.58 
			110.72,89.98 110.72,102.28 82.52,106.53 82.52,75.22 		"/>
		<polygon class="st0" points="138.54,95.33 138.54,104.06 110.72,102.28 110.72,89.98 		"/>
		<polygon class="st0" points="138.54,81.61 138.54,90.64 110.72,85.17 110.72,73.46 		"/>
		<polygon class="st0" points="138.54,65.66 138.54,76.57 110.72,67.86 110.72,53.57 		"/>
		<polygon class="st1" points="158.67,59.19 158.67,105.47 142.58,104.42 142.53,96.1 153.83,98.27 153.83,93.65 142.51,91.42 
			142.46,82.76 153.83,86.09 153.83,81.36 142.43,77.79 142.34,62.77 142.32,62.77 130.93,57.87 130.93,44.67 		"/>
	</g>
	<g>
		<path d="M176.3,40.57c-1.46,0.02-2.89-0.21-4.32-0.44c-2.64-0.43-5.28-0.85-7.92-1.27c-2.5-0.4-5-0.78-7.49-1.19
			c-2.79-0.44-5.57-0.9-8.36-1.34c-3.47-0.55-6.94-1.1-10.41-1.65c-3.48-0.56-6.96-1.12-10.43-1.68c-3.3-0.52-6.6-1.05-9.9-1.57
			c-0.11-0.02-0.24-0.03-0.26-0.17c-0.11-0.55-0.49-0.65-0.98-0.58c-0.18,0.03-0.37,0.02-0.55,0.01c-0.19-0.03-0.31,0.06-0.32,0.24
			c-0.03,0.3-0.24,0.42-0.47,0.52c-1.01,0.44-2.02,0.91-3.03,1.35c-2.03,0.9-4.05,1.8-6.08,2.69c-1.84,0.82-3.67,1.64-5.51,2.46
			c-1.88,0.84-3.77,1.67-5.65,2.49c-0.88,0.39-1.74,0.8-2.64,1.15c-0.31,0.11-0.37,0.24-0.37,0.52c0.01,0.92,0,0.93,0.9,0.92
			c0.31,0,0.38,0.1,0.37,0.39c-0.02,0.86,0.01,1.73-0.01,2.59c-0.01,0.29,0.1,0.37,0.37,0.37c0.6-0.02,1.2-0.02,1.8,0
			c0.29,0.01,0.37-0.1,0.37-0.38c-0.01-0.58,0-1.16,0-1.73v-1.02c0-0.1,0.02-0.18,0.15-0.19c0.12-0.01,0.18,0.05,0.19,0.17
			c0,0.1,0.01,0.21,0.01,0.31c0,0.83,0.01,1.66,0,2.48c-0.01,0.24,0.06,0.37,0.34,0.36c0.6-0.02,1.2-0.02,1.8,0
			c0.24,0.01,0.31-0.09,0.31-0.31c-0.01-0.83,0-1.66,0-2.48c0-0.57-0.08-0.54,0.52-0.54h14.58c0.54,0,0.54,0,0.54,0.52v56.39
			c0,0.13,0.03,0.28-0.03,0.4c-0.34,0.58-0.63,1.2-0.96,1.79c-0.23,0.38-0.39,0.8-0.65,1.19c-0.22,0.33-0.35,0.71-0.35,1.14
			c0.02,6.01,0.01,12,0.01,18.01c0,0.58,0.13,0.58-0.56,0.58c-0.01,0-0.01,0-0.02,0l0.25,0.65v-0.08c0.01-0.27,0.1-0.36,0.36-0.34
			c0.34,0.01,0.67,0,1.01,0c0.36,0,0.23,0.26,0.24,0.44c0.03,0.18,0,0.34-0.25,0.31c-0.17-0.01-0.36,0-0.54,0
			c-0.14,0-0.27-0.02-0.41,0c-0.14,0.03-0.24,0.01-0.3-0.04l0.11,0.27c4.8,0.01,9.61,0.01,14.41,0.01c0.37,0,0.5,0.2,0.38,0.57
			c-0.03,0.1-0.1,0.14-0.21,0.14h-14.31l0.1,0.24h14.24c0.06,0,0.13-0.01,0.2,0c0.22,0.02,0.31-0.08,0.31-0.3
			c-0.02-0.46-0.01-0.93-0.01-1.39c0-0.48,0-0.48-0.46-0.48h-5.07c-0.87-0.01-0.76,0.11-0.76-0.77v-17.84
			c0-0.16,0.03-0.35-0.04-0.47c-0.31-0.56-0.58-1.14-0.91-1.7c-0.23-0.38-0.41-0.79-0.63-1.19c-0.26-0.46-0.51-0.92-0.51-1.51
			c0.03-9.3,0.02-18.59,0.02-27.9V43.55c0-0.5,0-0.5,0.51-0.5h25.34c0.1,0,0.2,0.01,0.31,0c0.24-0.03,0.31,0.09,0.31,0.31
			c-0.01,0.56,0.01,1.12-0.01,1.67c0,0.24,0.09,0.32,0.32,0.31c0.36-0.02,0.72-0.01,1.09-0.01c0.44,0.01,0.44,0.01,0.44,0.45
			c0,6.72,0,5.01,0,11.73c0,0.16-0.03,0.31-0.05,0.47c-0.04,0.42-0.19,0.92,0.07,1.26c0.24,0.3,0.52,0.57,0.75,0.89
			c0.01,0.01,0.02,0.01,0.03,0.02c0.19,0.16,0.24,0.35,0.09,0.53c-0.16,0.18-0.38,0.22-0.58,0.06c-0.17-0.13-0.32-0.28-0.07-0.49
			c0.07-0.06,0.11-0.17,0.03-0.24c-0.1-0.09-0.23-0.08-0.31,0.02c-0.17,0.2-0.2,0.43-0.11,0.67c0.12,0.33,0.4,0.43,0.7,0.44
			c0.33,0.02,0.62-0.14,0.76-0.43c0.13-0.28,0.05-0.54-0.21-0.75c-0.25-0.21-0.24-0.34,0.05-0.48c0.25-0.12,0.31-0.32,0.33-0.58
			c0.04-0.5-0.09-0.99-0.09-1.49c0-6.66,0-4.9,0-11.56c0-0.09,0.01-0.18,0-0.27c-0.02-0.19,0.06-0.26,0.25-0.26
			c0.3,0.01,0.59-0.02,0.89,0.01c0.33,0.03,0.41-0.11,0.4-0.41c-0.02-0.45,0-0.91,0-1.37c0-0.52,0-0.52,0.54-0.52h25.59
			c0.19,0,0.38,0.01,0.58-0.02c0.65-0.1,1.25-0.5,1.23-1.17C177.66,41.1,177.14,40.55,176.3,40.57z M124.98,123.47
			c0.03-0.12,0.09-0.16,0.18-0.16c0.4,0,0.79-0.02,1.19,0c0.32,0.01,0.19,0.27,0.22,0.44c0.02,0.17-0.01,0.32-0.24,0.31
			c-0.19-0.01-0.39,0-0.58,0h-0.31C124.98,124.06,124.88,123.93,124.98,123.47z M123.38,123.31c0.35,0.01,0.7,0,1.05,0
			c0.36,0,0.22,0.27,0.24,0.44c0.03,0.18-0.01,0.33-0.26,0.31c-0.17-0.01-0.36,0-0.54,0c-0.13,0-0.27-0.02-0.4,0
			c-0.35,0.06-0.42-0.1-0.41-0.41C123.08,123.4,123.12,123.29,123.38,123.31z M121.5,123.31c0.34,0.01,0.68,0.01,1.02,0
			c0.35,0,0.23,0.25,0.24,0.44c0.02,0.18,0.01,0.34-0.25,0.31c-0.17-0.01-0.36,0-0.54,0c-0.13,0-0.27-0.02-0.4,0
			c-0.33,0.05-0.43-0.08-0.42-0.41C121.16,123.39,121.25,123.29,121.5,123.31z M175.59,40.83c0.02,0.08-0.06,0.1-0.12,0.12
			c-0.37,0.19-0.75,0.37-1.12,0.57c-0.17,0.08-0.3,0.09-0.44,0c-0.4-0.24-0.81-0.45-1.21-0.68c-0.04-0.03-0.14-0.01-0.11-0.09
			c0.02-0.06,0.09-0.04,0.15-0.04c0.45,0,2.26,0.06,2.71,0.08C175.5,40.8,175.59,40.81,175.59,40.83z M148.71,36.54l0.03,0.02
			l-0.03,0.01V36.54z M148.29,36.47c0.01,0,0.02,0.01,0.03,0.01c-0.01,0.01-0.01,0.02-0.02,0.02s-0.02,0-0.03-0.01
			C148.28,36.49,148.28,36.47,148.29,36.47z M147.85,36.4c0,0,0.01,0.02,0.01,0.03c-0.02,0-0.03,0.01-0.06,0.01
			c0,0,0-0.02-0.01-0.03C147.81,36.41,147.83,36.4,147.85,36.4z M147.4,36.32c0.03,0.01,0.06,0.01,0.07,0.02
			c0,0.04-0.03,0.03-0.06,0.03c-0.03,0-0.04-0.01-0.06-0.02C147.36,36.35,147.38,36.33,147.4,36.32z M146.97,36.25
			c0.03,0.02,0.08,0.01,0.06,0.05c-0.02,0.02-0.06,0.02-0.09,0.02c-0.02,0-0.03-0.03-0.04-0.03
			C146.93,36.27,146.95,36.25,146.97,36.25z M146.61,36.21c-0.12,0.07-0.21,0.03-0.31-0.01C146.4,36.19,146.49,36.16,146.61,36.21z
			 M146.29,36.19L146.29,36.19L146.29,36.19L146.29,36.19c-0.14-0.02-0.31,0.03-0.43-0.09C146,36.12,146.16,36.06,146.29,36.19z
			 M117.61,31.56c2.03,0.32,4.05,0.66,6.08,0.99c2.21,0.35,4.41,0.69,6.62,1.04c2.28,0.37,4.56,0.73,6.84,1.1
			c2.38,0.38,4.77,0.77,7.15,1.15c0.09,0.01,0.18,0,0.24,0.09c0.15-0.01,0.29-0.06,0.42,0.05h0.01c0.01,0.01,0.01,0.01,0.02,0.01
			c0.14,0,0.31-0.05,0.43,0.08h0.01c0.01,0,0.01,0.01,0.02,0.01c0.14-0.03,0.27-0.05,0.4,0.03c0.01,0,0.01,0,0.02,0v0.01
			c-0.01,0-0.01-0.01-0.02-0.01c-0.14,0.03-0.27,0.04-0.4-0.03c-0.01,0-0.01,0-0.02,0l-0.01-0.01c-0.14-0.01-0.3,0.03-0.43-0.08
			c-0.01,0-0.01,0-0.02,0l-0.01-0.01c-0.15,0.03-0.28,0.04-0.42-0.05c-0.72-0.03-1.43-0.19-2.14-0.3c-2.18-0.31-4.35-0.65-6.52-0.99
			c-2.02-0.31-4.04-0.62-6.05-0.93l-5.54-0.84c-2.01-0.31-4.04-0.62-6.05-0.93c-0.21-0.03-0.43-0.07-0.64-0.09
			c-0.16-0.02-0.31-0.07-0.27-0.24C117.36,31.46,117.51,31.55,117.61,31.56z M114.12,43.33c0.08-0.03,0.16,0.02,0.22,0.07
			c0.48,0.42,0.97,0.85,1.46,1.26c0.17,0.14,0.16,0.24,0,0.38c-0.49,0.4-0.96,0.81-1.44,1.23c-0.07,0.05-0.15,0.13-0.24,0.08
			c-0.08-0.03-0.04-0.14-0.04-0.22v-2.58C114.08,43.48,114.05,43.38,114.12,43.33z M118.22,103.64c-0.06,0.02-0.17-0.04-0.24-0.1
			c-0.37-0.31-0.73-0.64-1.1-0.95c-0.1-0.09-0.2-0.18-0.31-0.26c-0.16-0.11-0.15-0.19,0-0.31c0.44-0.37,0.89-0.76,1.33-1.14
			c0.1-0.09,0.21-0.2,0.31-0.16c0.1,0.03,0.05,0.2,0.05,0.31c0.01,0.39,0,0.79,0,1.19c0,0.4,0.01,0.79,0,1.19
			C118.27,103.48,118.32,103.61,118.22,103.64z M118.28,110.26c0.03,0.28-0.08,0.34-0.32,0.23c-0.4-0.18-0.79-0.37-1.19-0.55
			c-0.11-0.05-0.22-0.12-0.03-0.21c0.44-0.21,0.88-0.41,1.32-0.61c0.16-0.07,0.23-0.02,0.23,0.16c-0.01,0.18-0.01,0.37-0.01,0.55
			C118.27,109.96,118.26,110.11,118.28,110.26z M117.67,119.25c-0.5,0.01-1,0-1.5,0h-1.46c-0.08,0-0.2,0.03-0.24-0.08
			c-0.03-0.08,0.07-0.13,0.13-0.18c0.47-0.41,0.94-0.81,1.41-1.21c0.1-0.1,0.2-0.12,0.32-0.02c0.48,0.41,0.97,0.82,1.44,1.23
			c0.06,0.05,0.16,0.11,0.13,0.19C117.87,119.29,117.76,119.25,117.67,119.25z M117.76,119.78c-0.47,0.4-0.94,0.8-1.41,1.2
			c-0.12,0.1-0.22,0.09-0.33-0.01c-0.48-0.41-0.96-0.82-1.43-1.24c-0.05-0.03-0.11-0.11-0.11-0.16c0.02-0.1,0.12-0.08,0.2-0.08
			c0.51-0.01,1.02,0,1.53,0c0-0.01,0-0.01,0-0.01c0.47,0,0.95,0,1.43,0.01c0.1,0,0.23-0.04,0.27,0.07
			C117.94,119.65,117.82,119.72,117.76,119.78z M114.15,112.14c0.1-0.01,0.19,0.06,0.25,0.14c0.19,0.24,0.5,0.35,0.6,0.67
			c-0.26-0.11-0.52-0.24-0.79-0.34c-0.16-0.06-0.13-0.19-0.13-0.31C114.08,112.25,114.05,112.15,114.15,112.14z M118.28,114.08
			c0.03,0.28-0.08,0.34-0.32,0.23c-0.41-0.18-0.82-0.37-1.23-0.57c-0.14-0.06-0.15-0.12-0.01-0.18c0.44-0.21,0.88-0.41,1.33-0.61
			c0.18-0.08,0.24,0,0.24,0.18c-0.01,0.17-0.01,0.34-0.01,0.51C118.27,113.78,118.26,113.93,118.28,114.08z M117.72,115.13
			c0.07,0.06,0.2,0.12,0.15,0.24c-0.03,0.09-0.16,0.04-0.24,0.04c-0.49,0.01-0.98,0.01-1.46,0.01c-0.51,0-1.01,0-1.53-0.01
			c-0.06,0-0.15,0.03-0.17-0.06c-0.01-0.04,0.04-0.1,0.09-0.14c0.49-0.43,0.99-0.85,1.48-1.27c0.1-0.1,0.2-0.08,0.3,0.01
			C116.8,114.35,117.27,114.73,117.72,115.13z M114.2,114.68c0.31-0.12,0.6-0.26,0.9-0.39c0.03-0.03,0.06-0.06,0.1-0.02
			c-0.03,0.02-0.04,0.03-0.07,0.05c-0.18,0.3-0.51,0.44-0.73,0.69c-0.07,0.08-0.15,0.16-0.25,0.15c-0.1-0.01-0.07-0.1-0.07-0.17
			C114.09,114.88,114.04,114.75,114.2,114.68z M114.46,115.71c0.04-0.08,0.15-0.05,0.22-0.05h3.03c0.07,0,0.18-0.04,0.22,0.11
			c-0.03,0.03-0.06,0.08-0.1,0.11c-0.51,0.44-1,0.87-1.51,1.31c-0.11,0.1-0.2,0.04-0.3-0.03c-0.48-0.41-0.96-0.82-1.44-1.24
			C114.52,115.86,114.4,115.81,114.46,115.71z M115.67,113.74c-0.44,0.2-0.88,0.4-1.32,0.61c-0.18,0.08-0.29,0.05-0.27-0.17
			c0.01-0.17,0-0.36,0-0.54c0-0.17,0.01-0.34,0-0.51c-0.03-0.26,0.1-0.26,0.28-0.18c0.44,0.2,0.86,0.4,1.29,0.59
			c0.06,0.03,0.12,0.03,0.13,0.1C115.79,113.71,115.72,113.71,115.67,113.74z M114.1,116c0-0.02,0.03-0.04,0.06-0.06
			c0.06,0.03,0.11,0.04,0.16,0.08c0.21,0.17,0.41,0.35,0.61,0.53c0.05,0.04,0.16,0.1,0.1,0.18c-0.04,0.07-0.12,0-0.18-0.03
			c-0.2-0.1-0.4-0.19-0.61-0.28C113.99,116.34,114.1,116.16,114.1,116z M114.08,117.44c0-0.78,0-0.78,0.7-0.49
			c0.31,0.13,0.59,0.27,0.89,0.41c0.05,0.03,0.09,0.07,0.13,0.1c-0.05,0.03-0.09,0.07-0.14,0.1c-0.43,0.2-0.86,0.39-1.29,0.59
			c-0.18,0.09-0.31,0.09-0.29-0.17C114.09,117.81,114.08,117.62,114.08,117.44z M118.13,116.46c-0.27,0.12-0.55,0.24-0.92,0.39
			c0.24-0.37,0.55-0.5,0.77-0.74c0.05-0.06,0.19-0.2,0.26-0.09C118.32,116.15,118.34,116.36,118.13,116.46z M118.28,116.93
			c-0.01,0.36-0.01,0.72,0,1.08c0,0.19-0.08,0.22-0.24,0.15c-0.49-0.23-0.98-0.44-1.53-0.69c0.55-0.25,1.03-0.47,1.51-0.69
			C118.17,116.71,118.28,116.7,118.28,116.93z M118.25,115.08c-0.08,0.13-0.21-0.02-0.26-0.08c-0.22-0.24-0.53-0.37-0.73-0.69
			c0.36,0.06,0.62,0.24,0.91,0.36C118.34,114.75,118.32,114.97,118.25,115.08z M118.13,112.64c-0.27,0.12-0.55,0.24-0.92,0.4
			c0.23-0.37,0.55-0.51,0.76-0.75c0.06-0.06,0.21-0.22,0.29-0.09C118.33,112.33,118.33,112.54,118.13,112.64z M117.79,112.1
			c-0.49,0.43-0.98,0.84-1.46,1.26c-0.1,0.08-0.19,0.07-0.27-0.01c-0.51-0.42-0.99-0.85-1.49-1.27c-0.05-0.04-0.12-0.1-0.1-0.17
			c0.03-0.1,0.14-0.06,0.21-0.06c0.51-0.01,1.02,0,1.53,0c0.49,0,0.98-0.01,1.46,0c0.08,0,0.2-0.04,0.24,0.07
			C117.94,111.99,117.85,112.05,117.79,112.1z M117.7,111.6h-3.03c-0.06,0-0.15,0.03-0.18-0.04c-0.04-0.1,0.05-0.14,0.1-0.19
			c0.48-0.41,0.96-0.82,1.44-1.23c0.1-0.1,0.21-0.12,0.33-0.02c0.47,0.42,0.96,0.82,1.43,1.24c0.06,0.04,0.16,0.1,0.12,0.18
			C117.87,111.64,117.77,111.6,117.7,111.6z M114.13,108.31c0.12-0.03,0.2,0.07,0.28,0.15c0.23,0.25,0.55,0.4,0.78,0.77
			c-0.37-0.17-0.66-0.31-0.97-0.43c-0.16-0.06-0.14-0.18-0.14-0.31C114.08,108.43,114.05,108.33,114.13,108.31z M114.14,100.66
			c0.05-0.01,0.14,0.03,0.18,0.07c0.5,0.42,0.99,0.85,1.49,1.27c0.13,0.11,0.14,0.21,0,0.33c-0.5,0.42-0.99,0.85-1.49,1.27
			c-0.04,0.04-0.12,0.08-0.17,0.07c-0.11-0.02-0.07-0.12-0.07-0.2v-2.61C114.08,100.79,114.04,100.69,114.14,100.66z M114.12,93.02
			c0.08-0.03,0.15,0.02,0.21,0.07c0.5,0.43,0.99,0.85,1.49,1.27c0.1,0.1,0.16,0.19,0.02,0.31c-0.51,0.44-1.02,0.89-1.53,1.33
			c-0.17,0.14-0.24,0.05-0.23-0.14v-2.62C114.08,93.17,114.05,93.07,114.12,93.02z M114.14,77.73c0.05-0.02,0.13,0.02,0.18,0.06
			c0.51,0.43,1,0.86,1.51,1.3c0.12,0.1,0.12,0.2,0,0.31c-0.51,0.43-1,0.86-1.51,1.29c-0.05,0.04-0.13,0.08-0.18,0.06
			c-0.1-0.03-0.06-0.13-0.06-0.2v-2.62C114.08,77.86,114.04,77.76,114.14,77.73z M114.12,70.09c0.08-0.03,0.15,0.02,0.21,0.07
			c0.5,0.43,0.99,0.85,1.49,1.27c0.13,0.11,0.13,0.22,0,0.33c-0.5,0.43-0.99,0.85-1.49,1.28c-0.06,0.05-0.13,0.1-0.21,0.06
			c-0.07-0.03-0.04-0.11-0.04-0.18v-2.65C114.08,70.21,114.05,70.12,114.12,70.09z M114.12,62.46c0.08-0.03,0.15,0.02,0.22,0.07
			c0.48,0.42,0.97,0.84,1.46,1.25c0.17,0.15,0.13,0.25-0.02,0.38c-0.48,0.41-0.96,0.82-1.44,1.23c-0.06,0.05-0.13,0.11-0.21,0.08
			c-0.09-0.03-0.05-0.14-0.05-0.21v-2.62C114.08,62.58,114.05,62.49,114.12,62.46z M114.67,46.86h1.5c0.51,0,1.02,0,1.53,0.01
			c0.07,0,0.17-0.04,0.21,0.05c0.03,0.1-0.06,0.15-0.12,0.19c-0.49,0.43-0.99,0.85-1.48,1.28c-0.11,0.1-0.2,0.04-0.3-0.03
			c-0.48-0.41-0.96-0.82-1.44-1.23c-0.06-0.06-0.17-0.11-0.12-0.22C114.5,46.84,114.59,46.86,114.67,46.86z M114.48,46.56
			c-0.02-0.04,0.05-0.11,0.1-0.16c0.49-0.42,0.98-0.84,1.46-1.26c0.1-0.09,0.19-0.1,0.31-0.01c0.47,0.41,0.96,0.82,1.44,1.24
			c0.05,0.04,0.13,0.13,0.12,0.18c-0.03,0.11-0.15,0.06-0.23,0.07h-3C114.61,46.62,114.5,46.66,114.48,46.56z M118.21,50.15
			c-0.07,0.02-0.18-0.06-0.26-0.12c-0.37-0.31-0.74-0.63-1.09-0.97c-0.14-0.13-0.42-0.18-0.4-0.41c0.02-0.18,0.27-0.24,0.41-0.38
			c0.36-0.34,0.74-0.65,1.12-0.98c0.07-0.05,0.17-0.11,0.24-0.1c0.1,0.03,0.05,0.16,0.05,0.24c0.01,0.43,0,0.85,0,1.26
			c0,0.39,0.01,0.79,0,1.19C118.27,49.98,118.33,50.12,118.21,50.15z M116.02,48.97c0.1-0.09,0.19-0.1,0.3-0.02
			c0.49,0.42,0.98,0.84,1.46,1.26c0.05,0.05,0.15,0.1,0.12,0.18c-0.03,0.1-0.16,0.07-0.24,0.07c-0.51,0.01-1.02,0-1.53,0h-1.49
			c-0.07,0-0.16,0.02-0.19-0.05c-0.04-0.09,0.06-0.14,0.11-0.18C115.05,49.81,115.54,49.39,116.02,48.97z M114.68,50.71h1.49
			c0.51,0,1.02-0.01,1.53,0c0.07,0,0.16,0.01,0.19,0.05c0.05,0.07-0.03,0.11-0.08,0.16c-0.5,0.44-1,0.86-1.51,1.3
			c-0.1,0.08-0.18,0.05-0.27-0.02c-0.49-0.42-0.98-0.84-1.46-1.26c-0.05-0.04-0.11-0.12-0.1-0.17
			C114.5,50.69,114.6,50.71,114.68,50.71z M116.32,52.77c0.49,0.42,0.98,0.84,1.46,1.26c0.06,0.04,0.15,0.1,0.12,0.18
			c-0.03,0.09-0.14,0.07-0.21,0.07h-3c-0.08,0-0.17,0.02-0.22-0.06c-0.04-0.09,0.05-0.14,0.1-0.18c0.48-0.42,0.96-0.83,1.44-1.24
			C116.12,52.72,116.22,52.68,116.32,52.77z M114.66,54.52h3.05c0.07,0,0.17,0.02,0.19,0.05c0.06,0.09-0.04,0.14-0.1,0.18
			c-0.5,0.44-0.99,0.85-1.49,1.28c-0.09,0.08-0.18,0.07-0.27-0.01c-0.5-0.43-0.99-0.85-1.48-1.27c-0.05-0.04-0.11-0.11-0.1-0.16
			C114.47,54.5,114.58,54.52,114.66,54.52z M118.21,57.8c-0.06,0.02-0.17-0.05-0.23-0.1c-0.39-0.33-0.78-0.65-1.14-1
			c-0.14-0.13-0.4-0.17-0.39-0.39c0.02-0.17,0.26-0.24,0.39-0.36c0.37-0.35,0.75-0.67,1.14-1c0.06-0.05,0.17-0.12,0.24-0.1
			c0.1,0.03,0.05,0.15,0.05,0.24c0.01,0.42,0,0.84,0,1.26c0,0.41,0.01,0.82,0,1.23C118.27,57.64,118.33,57.77,118.21,57.8z
			 M118.21,61.61c-0.07,0.03-0.18-0.06-0.26-0.12c-0.37-0.32-0.75-0.65-1.12-0.99c-0.4-0.37-0.4-0.38,0.01-0.74
			c0.37-0.32,0.73-0.65,1.1-0.96c0.09-0.07,0.19-0.18,0.3-0.13c0.08,0.05,0.03,0.19,0.03,0.29c0.01,0.4,0,0.8,0,1.19
			c0,0.4,0.01,0.79,0,1.19C118.27,61.44,118.33,61.58,118.21,61.61z M116.31,56.59c0.49,0.42,0.98,0.83,1.46,1.25
			c0.06,0.05,0.16,0.11,0.13,0.18c-0.03,0.1-0.16,0.07-0.24,0.07c-0.48,0.01-0.97,0.01-1.46,0.01c0-0.01,0-0.01,0-0.01h-1.53
			c-0.08,0-0.18,0.03-0.2-0.08c0-0.05,0.06-0.12,0.11-0.17c0.47-0.41,0.95-0.82,1.43-1.23C116.11,56.54,116.2,56.5,116.31,56.59z
			 M114.48,58.41c0.03-0.03,0.12-0.04,0.18-0.04h3.03c0.06,0,0.17,0.01,0.18,0.04c0.05,0.09-0.04,0.14-0.1,0.19
			c-0.48,0.42-0.98,0.83-1.46,1.25c-0.11,0.1-0.21,0.06-0.31-0.02c-0.47-0.42-0.95-0.82-1.43-1.24
			C114.53,58.55,114.44,58.49,114.48,58.41z M116.05,60.4c0.1-0.08,0.18-0.07,0.28,0.01c0.48,0.43,0.97,0.84,1.46,1.26
			c0.06,0.06,0.17,0.11,0.12,0.22c-0.04,0.08-0.15,0.05-0.22,0.05h-3.03c-0.07-0.01-0.17,0.03-0.21-0.07
			c-0.03-0.07,0.04-0.12,0.1-0.16C115.05,61.27,115.54,60.84,116.05,60.4z M118.21,69.25c-0.07,0.02-0.18-0.07-0.26-0.13
			c-0.37-0.31-0.75-0.64-1.12-0.98c-0.39-0.37-0.39-0.37,0.01-0.75c0.37-0.35,0.76-0.67,1.14-1c0.07-0.05,0.15-0.14,0.24-0.1
			c0.1,0.04,0.05,0.16,0.05,0.24c0.01,0.42,0,0.84,0,1.26c0,0.39,0.01,0.79,0,1.19C118.27,69.08,118.33,69.22,118.21,69.25z
			 M118.21,80.71c-0.07,0.02-0.18-0.06-0.26-0.13c-0.37-0.31-0.75-0.64-1.12-0.98c-0.38-0.36-0.38-0.37,0-0.73
			c0.37-0.33,0.74-0.65,1.12-0.98c0.08-0.06,0.19-0.15,0.26-0.13c0.11,0.03,0.06,0.17,0.06,0.27c0.01,0.41,0,0.82,0,1.22
			c0,0.4,0.01,0.79,0,1.19C118.27,80.54,118.33,80.69,118.21,80.71z M118.21,88.36c-0.07,0.02-0.18-0.06-0.26-0.13
			c-0.37-0.31-0.75-0.64-1.12-0.98c-0.39-0.36-0.39-0.37,0-0.73c0.36-0.33,0.74-0.65,1.12-0.98c0.07-0.06,0.18-0.15,0.26-0.13
			c0.11,0.03,0.06,0.17,0.06,0.27c0.01,0.4,0,0.81,0,1.22c0,0.4,0.01,0.79,0,1.19C118.27,88.19,118.33,88.33,118.21,88.36z
			 M118.21,96.01c-0.07,0.02-0.18-0.07-0.26-0.13c-0.37-0.32-0.75-0.64-1.12-0.98c-0.38-0.36-0.38-0.37,0-0.73
			c0.37-0.33,0.74-0.65,1.12-0.98c0.08-0.06,0.19-0.15,0.26-0.13c0.11,0.03,0.06,0.17,0.06,0.27c0.01,0.39,0,0.79,0,1.19
			c0,0.41,0.01,0.82,0,1.22C118.27,95.83,118.33,95.97,118.21,96.01z M116.35,79.54c0.48,0.41,0.96,0.82,1.44,1.23
			c0.05,0.05,0.15,0.1,0.12,0.19c-0.03,0.11-0.15,0.06-0.24,0.06c-0.49,0.01-0.98,0-1.46,0h-1.53c-0.07,0-0.17,0.03-0.2-0.07
			c-0.01-0.04,0.06-0.11,0.1-0.16c0.48-0.41,0.96-0.82,1.44-1.24C116.12,79.47,116.22,79.43,116.35,79.54z M114.58,77.7
			c-0.05-0.05-0.14-0.1-0.1-0.2c0.04-0.08,0.14-0.05,0.22-0.05h3.03c0.06,0,0.14-0.02,0.17,0.06c0.04,0.07-0.03,0.12-0.08,0.17
			c-0.51,0.44-1.01,0.86-1.51,1.3c-0.1,0.09-0.19,0.05-0.28-0.02C115.55,78.54,115.07,78.12,114.58,77.7z M114.67,81.26h3.03
			c0.07,0,0.17-0.03,0.21,0.05c0.04,0.1-0.05,0.15-0.1,0.19c-0.5,0.43-0.99,0.85-1.49,1.28c-0.1,0.1-0.2,0.05-0.3-0.03
			c-0.48-0.41-0.96-0.82-1.43-1.24c-0.07-0.05-0.17-0.1-0.13-0.21C114.49,81.23,114.59,81.26,114.67,81.26z M116.02,83.37
			c0.1-0.09,0.19-0.11,0.3-0.02c0.49,0.42,0.98,0.83,1.46,1.25c0.05,0.05,0.15,0.11,0.12,0.19c-0.03,0.1-0.16,0.07-0.24,0.07h-2.99
			c-0.07,0-0.17,0.03-0.22-0.05c-0.04-0.1,0.06-0.14,0.11-0.19C115.05,84.2,115.54,83.79,116.02,83.37z M114.72,85.1h2.99
			c0.07,0,0.17,0.01,0.19,0.05c0.06,0.09-0.04,0.14-0.1,0.18c-0.49,0.43-0.98,0.84-1.46,1.26c-0.12,0.1-0.22,0.06-0.33-0.03
			c-0.46-0.41-0.94-0.81-1.4-1.21c-0.06-0.05-0.16-0.11-0.13-0.18C114.51,85.07,114.63,85.1,114.72,85.1z M116.34,87.17
			c0.48,0.42,0.96,0.82,1.44,1.24c0.05,0.05,0.17,0.1,0.12,0.21c-0.04,0.09-0.17,0.05-0.25,0.05c-0.48,0.01-0.95,0-1.43,0h-1.53
			c-0.07,0-0.18,0.02-0.21-0.07c-0.03-0.08,0.07-0.14,0.12-0.18c0.47-0.41,0.94-0.81,1.41-1.21
			C116.11,87.11,116.21,87.07,116.34,87.17z M118.23,92.19c-0.1,0.04-0.19-0.05-0.26-0.11c-0.37-0.31-0.74-0.62-1.09-0.96
			c-0.15-0.14-0.43-0.2-0.43-0.41c0-0.2,0.28-0.26,0.43-0.41c0.35-0.33,0.72-0.65,1.09-0.95c0.07-0.06,0.17-0.17,0.26-0.11
			c0.09,0.04,0.04,0.17,0.04,0.25c0.01,0.41,0,0.82,0,1.23c0,0.41,0.01,0.81,0,1.22C118.27,92.02,118.32,92.14,118.23,92.19z
			 M114.64,88.92c0.51-0.01,1.04,0,1.56,0c0.5,0,0.99-0.01,1.5,0c0.07,0,0.17-0.03,0.21,0.06c0.03,0.07-0.04,0.12-0.1,0.17
			c-0.5,0.43-1,0.86-1.51,1.29c-0.1,0.09-0.19,0.05-0.28-0.03c-0.49-0.43-0.99-0.85-1.48-1.27c-0.04-0.04-0.12-0.09-0.09-0.17
			C114.48,88.9,114.57,88.92,114.64,88.92z M116.05,90.99c0.09-0.08,0.17-0.08,0.27,0c0.5,0.43,0.99,0.85,1.48,1.28
			c0.05,0.04,0.15,0.1,0.1,0.18c-0.04,0.09-0.14,0.05-0.22,0.05c-0.51,0.01-1.02,0.01-1.53,0.01c-0.51,0-1.02,0-1.53-0.01
			c-0.06,0-0.15,0.03-0.18-0.05c-0.03-0.08,0.04-0.12,0.09-0.17C115.04,91.86,115.54,91.42,116.05,90.99z M114.48,92.81
			c0.03-0.09,0.14-0.05,0.22-0.05h3.02c0.07,0,0.16-0.02,0.18,0.05c0.03,0.08-0.04,0.12-0.09,0.17c-0.5,0.43-0.99,0.85-1.49,1.28
			c-0.1,0.1-0.21,0.05-0.31-0.03c-0.48-0.41-0.96-0.82-1.43-1.24C114.53,92.95,114.44,92.89,114.48,92.81z M116.04,94.83
			c0.1-0.08,0.18-0.1,0.3-0.01c0.49,0.42,0.98,0.84,1.46,1.26c0.06,0.05,0.15,0.1,0.12,0.19c-0.03,0.1-0.14,0.06-0.22,0.06h-3.03
			c-0.08,0-0.18,0.03-0.2-0.08c-0.01-0.04,0.05-0.12,0.1-0.17C115.06,95.67,115.54,95.25,116.04,94.83z M118.23,99.82
			c-0.1,0.05-0.19-0.05-0.26-0.1c-0.37-0.32-0.76-0.65-1.12-0.98c-0.41-0.38-0.41-0.4,0-0.78c0.37-0.33,0.74-0.65,1.12-0.98
			c0.07-0.05,0.17-0.16,0.26-0.1c0.04,0.03,0.03,0.17,0.03,0.26c0.01,0.4,0,0.81,0,1.22c0,0.4,0.01,0.81,0,1.22
			C118.27,99.67,118.32,99.79,118.23,99.82z M118.22,84.54c-0.07,0.03-0.17-0.04-0.24-0.1c-0.4-0.34-0.79-0.67-1.18-1.03
			c-0.37-0.34-0.37-0.36,0-0.71c0.37-0.34,0.76-0.67,1.15-1c0.07-0.06,0.18-0.14,0.25-0.12c0.11,0.03,0.06,0.17,0.06,0.27
			c0.01,0.41,0,0.82,0,1.23c0,0.4,0.01,0.81,0,1.22C118.27,84.39,118.32,84.52,118.22,84.54z M117.66,77.2
			c-0.5,0.01-0.99,0.01-1.49,0.01c-0.51,0-1,0-1.5-0.01c-0.07,0-0.18,0.04-0.21-0.05c-0.03-0.09,0.07-0.14,0.12-0.19
			c0.48-0.41,0.96-0.82,1.44-1.23c0.1-0.09,0.19-0.12,0.31-0.03c0.49,0.42,0.98,0.84,1.46,1.26c0.06,0.05,0.16,0.1,0.12,0.19
			C117.86,77.25,117.75,77.2,117.66,77.2z M116.3,75.16c-0.1,0.08-0.19,0.03-0.27-0.03c-0.5-0.43-0.99-0.85-1.49-1.28
			c-0.04-0.04-0.11-0.11-0.1-0.16c0.02-0.1,0.12-0.06,0.2-0.06c0.51-0.01,1.02,0,1.53,0c0.52,0,1.05-0.01,1.56,0
			c0.07,0,0.15-0.03,0.18,0.04c0.04,0.08-0.03,0.12-0.08,0.17C117.32,74.28,116.82,74.72,116.3,75.16z M117.65,73.38
			c-0.49,0.01-0.98,0-1.46,0c-0.51,0-1.02,0.01-1.53,0c-0.06,0-0.15,0.03-0.18-0.04c-0.04-0.09,0.05-0.14,0.1-0.18
			c0.49-0.43,0.98-0.85,1.46-1.26c0.09-0.08,0.18-0.12,0.3-0.02c0.48,0.41,0.96,0.82,1.44,1.23c0.06,0.06,0.17,0.12,0.15,0.21
			C117.88,73.44,117.74,73.38,117.65,73.38z M116.03,71.29c-0.49-0.41-0.98-0.83-1.46-1.26c-0.05-0.04-0.12-0.11-0.11-0.16
			c0.02-0.1,0.13-0.07,0.2-0.07h3.09c0.05,0,0.13,0.01,0.16,0.04c0.05,0.07-0.03,0.12-0.08,0.16c-0.51,0.44-1.02,0.89-1.53,1.33
			C116.21,71.42,116.11,71.36,116.03,71.29z M116.83,71.95c-0.38-0.35-0.38-0.37-0.01-0.71c0.37-0.35,0.76-0.68,1.14-1
			c0.07-0.06,0.17-0.16,0.26-0.1c0.09,0.04,0.04,0.17,0.04,0.25c0.01,0.4,0,0.81,0,1.22c0,0.39,0.01,0.79,0,1.19
			c0,0.09,0.01,0.22-0.03,0.25c-0.1,0.07-0.19-0.04-0.26-0.1C117.59,72.63,117.2,72.3,116.83,71.95z M116.03,63.65
			c-0.49-0.42-0.98-0.84-1.46-1.26c-0.05-0.04-0.12-0.1-0.1-0.17c0.03-0.08,0.11-0.05,0.18-0.06h2.99c0.09,0,0.21-0.03,0.25,0.05
			c0.05,0.1-0.06,0.16-0.12,0.21c-0.48,0.42-0.96,0.82-1.44,1.24C116.23,63.76,116.13,63.73,116.03,63.65z M117.74,65.46
			c0.07,0.06,0.21,0.12,0.15,0.24c-0.04,0.1-0.17,0.05-0.24,0.05h-2.93c-0.09,0-0.21,0.04-0.24-0.07c-0.03-0.1,0.08-0.16,0.15-0.22
			c0.45-0.38,0.91-0.78,1.36-1.16c0.11-0.1,0.21-0.17,0.36-0.05C116.8,64.66,117.28,65.05,117.74,65.46z M114.47,66.03
			c0.03-0.08,0.14-0.04,0.22-0.04h3.02c0.06,0,0.16,0.01,0.18,0.04c0.05,0.07-0.03,0.12-0.07,0.17c-0.51,0.44-1.01,0.87-1.52,1.3
			c-0.12,0.1-0.23,0.03-0.32-0.06c-0.46-0.4-0.93-0.79-1.39-1.19C114.54,66.19,114.43,66.14,114.47,66.03z M116.05,68.06
			c0.09-0.08,0.17-0.09,0.27,0c0.5,0.43,0.99,0.85,1.48,1.27c0.06,0.05,0.15,0.1,0.12,0.19c-0.03,0.09-0.14,0.05-0.22,0.05h-3.06
			c-0.07,0-0.17,0.03-0.21-0.06c-0.03-0.07,0.05-0.11,0.1-0.16C115.04,68.92,115.54,68.48,116.05,68.06z M114.13,73.91
			c0.07-0.03,0.13,0.01,0.18,0.06c0.5,0.42,0.99,0.85,1.49,1.27c0.16,0.13,0.13,0.24-0.01,0.36c-0.49,0.41-0.98,0.83-1.46,1.25
			c-0.06,0.05-0.13,0.1-0.21,0.07c-0.07-0.03-0.04-0.12-0.04-0.18v-2.65C114.08,74.03,114.05,73.94,114.13,73.91z M114.14,81.57
			c0.07-0.03,0.15,0.03,0.21,0.08c0.49,0.43,0.98,0.85,1.46,1.26c0.14,0.12,0.13,0.22-0.01,0.33c-0.49,0.42-0.98,0.84-1.46,1.26
			c-0.07,0.05-0.14,0.1-0.21,0.08c-0.1-0.03-0.06-0.13-0.06-0.21v-2.59C114.08,81.7,114.04,81.6,114.14,81.57z M114.08,88.19v-2.62
			c0-0.06-0.03-0.15,0.04-0.18c0.08-0.03,0.15,0.01,0.21,0.06l1.49,1.28c0.11,0.1,0.15,0.18,0.02,0.31
			c-0.51,0.43-1.01,0.86-1.52,1.3c-0.04,0.03-0.13,0.08-0.18,0.06C114.04,88.37,114.08,88.26,114.08,88.19z M114.14,89.21
			c0.04-0.01,0.13,0.03,0.17,0.06c0.51,0.44,1.01,0.87,1.52,1.3c0.11,0.1,0.11,0.18,0,0.28c-0.5,0.44-1,0.87-1.51,1.3
			c-0.05,0.04-0.13,0.08-0.18,0.06c-0.1-0.03-0.06-0.13-0.06-0.2v-2.59C114.08,89.34,114.05,89.24,114.14,89.21z M114.64,96.57h1.57
			c0.5,0,1-0.01,1.5,0c0.07,0,0.17-0.04,0.2,0.06c0.01,0.04-0.05,0.12-0.1,0.17l-1.49,1.28c-0.1,0.08-0.19,0.06-0.28-0.01
			c-0.5-0.43-0.99-0.85-1.48-1.28c-0.05-0.04-0.12-0.09-0.1-0.17C114.49,96.55,114.58,96.57,114.64,96.57z M116.32,98.63
			c0.49,0.43,0.99,0.85,1.48,1.28c0.05,0.04,0.15,0.1,0.12,0.18c-0.04,0.1-0.16,0.05-0.24,0.06h-3.06c-0.06,0-0.15,0.03-0.17-0.05
			c-0.03-0.08,0.04-0.12,0.09-0.17c0.51-0.44,1-0.86,1.51-1.3C116.13,98.56,116.22,98.54,116.32,98.63z M117.92,100.49
			c-0.06,0.06-0.11,0.13-0.18,0.19c-0.46,0.39-0.92,0.78-1.39,1.19c-0.11,0.1-0.22,0.09-0.32-0.01c-0.49-0.42-0.98-0.84-1.46-1.26
			c-0.04-0.04-0.11-0.1-0.1-0.17c0.03-0.08,0.12-0.05,0.18-0.05h3.09C117.8,100.39,117.91,100.35,117.92,100.49z M114.2,107.03
			c0.3-0.13,0.59-0.25,0.9-0.38c0.03-0.03,0.06-0.05,0.1-0.01c-0.02,0.01-0.04,0.03-0.07,0.04c-0.17,0.3-0.51,0.44-0.72,0.69
			c-0.07,0.08-0.15,0.16-0.26,0.14c-0.09-0.02-0.06-0.1-0.06-0.17C114.08,107.22,114.05,107.09,114.2,107.03z M114.33,106.7
			c-0.2,0.1-0.26,0.02-0.25-0.18v-0.54c0-0.16,0.01-0.31,0-0.47c-0.02-0.24,0.05-0.31,0.29-0.21c0.43,0.21,0.85,0.4,1.28,0.6
			c0.05,0.03,0.12,0.03,0.12,0.1c0,0.08-0.07,0.07-0.12,0.1C115.21,106.29,114.77,106.5,114.33,106.7z M114.2,104.97
			c-0.15-0.07-0.12-0.2-0.12-0.32c0-0.06-0.03-0.15,0.07-0.16c0.11-0.01,0.19,0.07,0.25,0.15c0.23,0.25,0.55,0.39,0.78,0.76
			C114.81,105.23,114.51,105.1,114.2,104.97z M114.48,108.08c0.04-0.08,0.14-0.05,0.22-0.05h3.02c0.07,0,0.15-0.02,0.18,0.05
			c0.03,0.08-0.03,0.13-0.09,0.17c-0.5,0.43-1,0.86-1.5,1.29c-0.11,0.1-0.21,0.04-0.31-0.03c-0.46-0.41-0.94-0.81-1.4-1.21
			C114.54,108.24,114.43,108.18,114.48,108.08z M114.08,109.81c0-0.81,0-0.81,0.74-0.49c0.29,0.13,0.57,0.27,0.85,0.4
			c0.06,0.03,0.11,0.05,0.1,0.11c-0.01,0.03-0.07,0.05-0.1,0.07c-0.44,0.2-0.88,0.4-1.33,0.61c-0.22,0.1-0.28,0.02-0.27-0.2V109.81z
			 M118.14,108.8c-0.26,0.1-0.51,0.28-0.87,0.33c0.2-0.31,0.5-0.44,0.7-0.65c0.05-0.07,0.19-0.23,0.29-0.09
			C118.33,108.51,118.33,108.72,118.14,108.8z M117.67,107.78c-0.5,0.01-1,0.01-1.5,0.01c-0.51,0-1.02,0-1.53-0.01
			c-0.07,0-0.16,0.03-0.18-0.05c-0.03-0.07,0.04-0.12,0.1-0.17c0.5-0.43,0.99-0.85,1.48-1.28c0.09-0.07,0.18-0.09,0.28,0
			c0.49,0.42,0.98,0.83,1.46,1.26c0.05,0.04,0.15,0.1,0.12,0.18C117.87,107.83,117.75,107.78,117.67,107.78z M116.79,105.87
			c0.42-0.19,0.84-0.38,1.26-0.58c0.14-0.06,0.24-0.03,0.23,0.15c-0.01,0.19-0.01,0.38-0.01,0.58c0,0.73,0,0.74-0.67,0.46
			c-0.27-0.1-0.53-0.24-0.8-0.36C116.63,106.06,116.58,105.97,116.79,105.87z M116.31,105.73c-0.11,0.1-0.21,0.03-0.3-0.05
			c-0.48-0.41-0.96-0.82-1.43-1.23c-0.06-0.05-0.16-0.1-0.11-0.19c0.03-0.09,0.14-0.04,0.21-0.04c0.51-0.01,1.03-0.01,1.53-0.01
			c0.5,0,1,0,1.5,0.01c0.07,0,0.17-0.04,0.21,0.05c0.03,0.07-0.05,0.12-0.1,0.17C117.32,104.86,116.82,105.3,116.31,105.73z
			 M117.65,103.96c-0.49,0.01-0.98,0-1.46,0h-1.53c-0.06,0-0.15,0.03-0.18-0.04c-0.04-0.09,0.05-0.14,0.1-0.18
			c0.49-0.43,0.98-0.85,1.46-1.26c0.09-0.08,0.18-0.12,0.3-0.02c0.48,0.41,0.96,0.82,1.44,1.23c0.06,0.06,0.17,0.12,0.15,0.21
			C117.88,104.02,117.74,103.96,117.65,103.96z M118.21,76.9c-0.07,0.02-0.18-0.07-0.26-0.13c-0.37-0.31-0.74-0.62-1.08-0.96
			c-0.14-0.14-0.43-0.18-0.4-0.41c0.02-0.19,0.26-0.25,0.4-0.38c0.35-0.33,0.72-0.65,1.09-0.96c0.08-0.06,0.2-0.13,0.26-0.11
			c0.1,0.04,0.05,0.18,0.05,0.28c0.01,0.39,0,0.78,0,1.19c0,0.4,0.01,0.81,0,1.22C118.27,76.73,118.33,76.87,118.21,76.9z
			 M118.27,62.76c0.01,0.4,0,0.79,0,1.19c0,0.4,0.01,0.81,0,1.22c0,0.09,0.04,0.21-0.04,0.25c-0.1,0.04-0.19-0.06-0.26-0.11
			c-0.37-0.32-0.76-0.64-1.12-0.98c-0.4-0.37-0.4-0.39-0.01-0.76c0.37-0.33,0.74-0.65,1.12-0.98c0.08-0.06,0.17-0.16,0.26-0.12
			C118.33,62.53,118.27,62.66,118.27,62.76z M118.22,53.96c-0.09,0.04-0.18-0.05-0.26-0.11c-0.38-0.33-0.77-0.65-1.14-1
			c-0.37-0.34-0.37-0.36,0.01-0.71c0.37-0.34,0.75-0.67,1.14-1c0.07-0.06,0.17-0.16,0.26-0.11c0.09,0.04,0.04,0.17,0.04,0.25
			c0.01,0.4,0,0.81,0,1.22c0,0.39,0.01,0.79,0,1.19C118.27,53.78,118.33,53.92,118.22,53.96z M118.27,43.66c0.01,0.4,0,0.79,0,1.19
			s0.01,0.81,0,1.22c0,0.09,0.04,0.21-0.04,0.25c-0.1,0.04-0.19-0.05-0.26-0.12c-0.38-0.32-0.78-0.65-1.14-0.99
			c-0.37-0.35-0.37-0.37,0-0.71c0.37-0.34,0.75-0.67,1.14-0.99c0.07-0.06,0.17-0.17,0.25-0.12
			C118.33,43.43,118.27,43.56,118.27,43.66z M117.79,43.32c-0.49,0.42-0.98,0.84-1.46,1.26c-0.11,0.1-0.2,0.05-0.3-0.03
			c-0.48-0.42-0.96-0.83-1.44-1.24c-0.05-0.05-0.15-0.1-0.1-0.19c0.03-0.1,0.13-0.06,0.21-0.06h3c0.07,0,0.17-0.03,0.22,0.04
			C117.96,43.21,117.85,43.26,117.79,43.32z M117.9,42.77c-0.03,0.04-0.15,0.04-0.22,0.04h-3c-0.07,0-0.17,0.03-0.21-0.05
			c-0.04-0.09,0.05-0.14,0.1-0.18c0.48-0.42,0.96-0.83,1.44-1.24c0.1-0.1,0.21-0.12,0.33-0.02c0.47,0.42,0.96,0.83,1.43,1.24
			C117.84,42.61,117.96,42.67,117.9,42.77z M115.81,41.2c-0.49,0.42-0.98,0.84-1.46,1.26c-0.06,0.05-0.13,0.1-0.21,0.08
			c-0.09-0.03-0.05-0.14-0.05-0.21v-2.58c0-0.08-0.03-0.17,0.04-0.22c0.08-0.04,0.15,0.02,0.22,0.07c0.48,0.42,0.97,0.84,1.46,1.26
			C115.94,40.97,115.95,41.08,115.81,41.2z M114.14,47.17c0.05-0.01,0.14,0.03,0.18,0.07c0.5,0.42,0.99,0.85,1.49,1.27
			c0.14,0.12,0.12,0.22-0.01,0.33c-0.49,0.42-0.98,0.84-1.46,1.26c-0.06,0.05-0.13,0.1-0.21,0.08c-0.09-0.04-0.05-0.14-0.05-0.22
			v-2.58C114.08,47.3,114.04,47.2,114.14,47.17z M114.14,50.99c0.05-0.02,0.14,0.03,0.18,0.07c0.5,0.42,0.99,0.85,1.49,1.27
			c0.15,0.12,0.12,0.22-0.01,0.32c-0.49,0.42-0.98,0.84-1.46,1.26c-0.06,0.05-0.13,0.11-0.21,0.08c-0.09-0.03-0.05-0.14-0.05-0.21
			v-2.59C114.08,51.12,114.04,51.01,114.14,50.99z M114.14,54.81c0.05-0.02,0.14,0.03,0.18,0.07c0.5,0.42,0.99,0.85,1.49,1.27
			c0.14,0.11,0.12,0.21-0.01,0.32c-0.49,0.42-0.98,0.84-1.46,1.26c-0.06,0.05-0.13,0.1-0.21,0.08c-0.09-0.03-0.05-0.14-0.05-0.21
			v-2.59C114.08,54.95,114.04,54.83,114.14,54.81z M114.08,61.42V58.8c-0.01-0.24,0.1-0.22,0.24-0.11c0.51,0.44,1.01,0.87,1.52,1.3
			c0.11,0.1,0.11,0.18,0.01,0.28c-0.51,0.44-1.01,0.87-1.52,1.3c-0.05,0.04-0.13,0.08-0.18,0.06
			C114.04,61.6,114.08,61.49,114.08,61.42z M114.08,69.04V66.5c0-0.09-0.03-0.21,0.1-0.24c0.06,0.03,0.12,0.07,0.17,0.11
			c0.47,0.4,0.93,0.8,1.41,1.2c0.19,0.16,0.17,0.28-0.01,0.43c-0.47,0.38-0.93,0.78-1.39,1.18c-0.07,0.06-0.15,0.14-0.24,0.1
			C114.03,69.24,114.08,69.12,114.08,69.04z M114.08,99.62v-2.55c0-0.09-0.05-0.21,0.11-0.24c0.05,0.03,0.11,0.07,0.17,0.11
			c0.47,0.4,0.93,0.8,1.41,1.2c0.19,0.16,0.17,0.28-0.01,0.43c-0.47,0.38-0.93,0.78-1.39,1.18c-0.07,0.06-0.15,0.14-0.24,0.1
			C114.03,99.82,114.08,99.7,114.08,99.62z M114.18,110.87c0.31-0.13,0.59-0.31,0.92-0.39c0.02-0.01,0.03-0.02,0.04-0.03
			c0.04,0.05-0.02,0.03-0.03,0.05c-0.21,0.33-0.58,0.5-0.83,0.78c-0.04,0.04-0.17,0.11-0.19,0.01
			C114.06,111.15,114,110.96,114.18,110.87z M114.18,118.51c0.31-0.15,0.62-0.27,0.93-0.4c0.01-0.01,0.03-0.02,0.03-0.03
			c-0.01,0.01-0.02,0.02-0.03,0.03c-0.19,0.35-0.58,0.51-0.83,0.79c-0.03,0.04-0.16,0.12-0.19,0.03
			C114.06,118.8,114,118.6,114.18,118.51z M114.11,119.83c0.08-0.12,0.21-0.01,0.29,0.09c0.21,0.25,0.57,0.37,0.71,0.71
			c0.01,0,0.01,0.01,0.02,0.01l0.02,0.01h-0.03c0-0.01-0.01-0.01-0.01-0.02c-0.3-0.13-0.61-0.24-0.91-0.38
			C114,120.15,114.04,119.93,114.11,119.83z M114.08,121.29v-0.58c-0.01-0.17,0.09-0.2,0.21-0.15c0.48,0.21,0.95,0.43,1.42,0.65
			c0.11,0.05,0.1,0.11,0,0.16c-0.47,0.22-0.94,0.44-1.42,0.65c-0.12,0.05-0.22,0.03-0.21-0.15
			C114.09,121.67,114.08,121.48,114.08,121.29z M114.27,122.3c0.18-0.05,0.35-0.16,0.52-0.24c0.08-0.03,0.17-0.13,0.24-0.03
			c0.04,0.06-0.06,0.13-0.12,0.18c-0.18,0.17-0.38,0.34-0.58,0.51c-0.06,0.05-0.15,0.1-0.21,0.06c-0.03-0.03-0.04-0.1-0.03-0.1
			C114.06,122.45,114.11,122.35,114.27,122.3z M114.61,122.79c0.46-0.39,0.92-0.78,1.39-1.19c0.1-0.09,0.2-0.15,0.32-0.03
			c0.48,0.41,0.96,0.82,1.43,1.23c0.07,0.05,0.18,0.11,0.14,0.21c-0.03,0.1-0.16,0.06-0.24,0.06h-2.92c-0.09,0-0.21,0.03-0.24-0.07
			C114.44,122.91,114.55,122.86,114.61,122.79z M117.31,121.94c0.27,0.11,0.53,0.23,0.8,0.34c0.16,0.06,0.17,0.18,0.17,0.33
			c-0.01,0.16-0.05,0.21-0.2,0.1C117.79,122.49,117.51,122.26,117.31,121.94z M118.04,121.97c-0.5-0.22-0.99-0.44-1.52-0.69
			c0.52-0.24,0.99-0.45,1.46-0.67c0.19-0.09,0.31-0.1,0.31,0.18c-0.02,0.34-0.01,0.68,0,1.02
			C118.28,122.02,118.19,122.05,118.04,121.97z M118.15,120.27c-0.29,0.11-0.56,0.29-0.92,0.37c0.22-0.32,0.52-0.46,0.73-0.7
			c0.06-0.07,0.2-0.23,0.29-0.09C118.32,119.96,118.35,120.18,118.15,120.27z M118.25,118.91c-0.08,0.13-0.22-0.02-0.26-0.08
			c-0.23-0.24-0.54-0.38-0.77-0.71c0.37,0.08,0.65,0.25,0.95,0.38C118.35,118.57,118.32,118.79,118.25,118.91z M118.25,111.26
			c-0.08,0.14-0.21-0.02-0.27-0.08c-0.23-0.24-0.54-0.39-0.7-0.72c0.29,0.13,0.59,0.24,0.88,0.38
			C118.34,110.94,118.32,111.15,118.25,111.26z M118.25,107.43c-0.08,0.12-0.22-0.03-0.27-0.09c-0.21-0.23-0.5-0.37-0.71-0.66
			c0.37,0.05,0.61,0.23,0.88,0.34C118.34,107.1,118.32,107.31,118.25,107.43z M118.14,104.98c-0.27,0.1-0.51,0.29-0.88,0.34
			c0.2-0.31,0.5-0.44,0.7-0.66c0.06-0.07,0.2-0.23,0.29-0.09C118.33,104.68,118.33,104.91,118.14,104.98z M118.27,39.84
			c0.01,0.39,0,0.79,0,1.19c0,0.41,0.01,0.81,0,1.22c0,0.1,0.05,0.23-0.06,0.26c-0.06,0.03-0.17-0.05-0.24-0.1
			c-0.37-0.31-0.74-0.62-1.09-0.96c-0.15-0.14-0.42-0.2-0.43-0.41c0-0.21,0.27-0.27,0.42-0.41c0.34-0.34,0.71-0.65,1.09-0.95
			c0.07-0.06,0.17-0.17,0.26-0.11C118.33,39.6,118.27,39.74,118.27,39.84z M117.77,39.51c-0.48,0.42-0.96,0.82-1.44,1.24
			c-0.1,0.09-0.2,0.08-0.3-0.01c-0.5-0.43-0.99-0.85-1.48-1.28c-0.05-0.04-0.12-0.11-0.11-0.16c0.03-0.1,0.13-0.07,0.2-0.07h3.02
			c0.09,0,0.21-0.04,0.25,0.04C117.96,39.38,117.84,39.45,117.77,39.51z M116.18,33.88c0.1,0,0.75,0.55,0.77,0.64
			c0.02,0.1-0.05,0.1-0.12,0.1c-0.22,0.01-0.44,0.01-0.65,0.01h-0.58c-0.06-0.01-0.15,0.02-0.17-0.07
			c-0.03-0.08,0.04-0.12,0.09-0.17c0.17-0.15,0.34-0.3,0.51-0.44C116.08,33.91,116.13,33.88,116.18,33.88z M115.55,32.93
			c-0.06-0.05-0.15-0.1-0.12-0.19c0.03-0.1,0.13-0.05,0.21-0.05c0.18-0.01,0.36-0.01,0.54-0.01c0.14,0,0.27-0.01,0.41,0.01
			c0.12,0.01,0.31-0.08,0.36,0.07c0.03,0.11-0.14,0.22-0.24,0.3C116.17,33.49,116.16,33.49,115.55,32.93z M117.26,36.49
			c-0.05,0.02-0.15-0.03-0.21-0.09c-0.18-0.15-0.36-0.31-0.54-0.45c-0.06-0.06-0.1-0.14-0.03-0.21c0.22-0.18,0.44-0.36,0.65-0.53
			c0.12-0.1,0.18-0.06,0.18,0.09v0.55c0,0.13,0.01,0.27,0,0.41C117.31,36.33,117.37,36.46,117.26,36.49z M117.25,38.67
			c-0.08,0.02-0.2-0.09-0.29-0.16c-0.56-0.47-0.56-0.47-0.06-0.95c0.1-0.1,0.23-0.25,0.36-0.21c0.13,0.05,0.04,0.24,0.06,0.37
			c0.01,0.09,0,0.18,0,0.27c0,0.12,0.01,0.25,0,0.37C117.31,38.48,117.38,38.63,117.25,38.67z M115.12,37.36
			c0.2-0.1,0.32,0.22,0.49,0.34c0.42,0.31,0.42,0.31,0.01,0.62c-0.03,0.02-0.05,0.05-0.08,0.07c-0.14,0.1-0.23,0.37-0.42,0.27
			c-0.17-0.08-0.05-0.33-0.08-0.5v-0.2C115.08,37.78,114.93,37.47,115.12,37.36z M115.54,37.05c0.21-0.01,0.43,0,0.64,0v-0.01
			c0.21,0,0.41,0,0.62,0.01c0.05,0,0.12,0.01,0.15,0.03c0.04,0.08-0.03,0.13-0.08,0.17c-0.18,0.17-0.37,0.33-0.56,0.49
			c-0.03,0.03-0.08,0.04-0.12,0.04c-0.09,0-0.75-0.55-0.77-0.63C115.4,37.03,115.48,37.05,115.54,37.05z M115.43,36.72
			c-0.03-0.1,0.11-0.17,0.2-0.24c0.03-0.03,0.06-0.03,0.09-0.05c0.18-0.11,0.29-0.44,0.51-0.35c0.25,0.1,0.45,0.35,0.67,0.55
			c0.12,0.11,0.06,0.17-0.09,0.18h-0.65c-0.15,0-0.3,0.01-0.44,0C115.62,36.8,115.46,36.87,115.43,36.72z M115.46,38.81
			c0.19-0.18,0.4-0.36,0.6-0.53c0.08-0.06,0.17-0.07,0.24,0c0.03,0.03,0.07,0.06,0.1,0.1c0.17,0.19,0.61,0.36,0.53,0.53
			c-0.1,0.22-0.51,0.04-0.71,0.09h-0.71C115.35,38.99,115.35,38.91,115.46,38.81z M115.54,34.87c0.22-0.01,0.43,0,0.65,0v-0.01h0.58
			c0.07,0.01,0.15-0.02,0.18,0.05c0.04,0.07-0.03,0.12-0.08,0.17c-0.18,0.17-0.37,0.32-0.56,0.49c-0.03,0.02-0.09,0.03-0.12,0.03
			c-0.09,0-0.76-0.56-0.77-0.64C115.4,34.85,115.48,34.87,115.54,34.87z M115.62,35.53c0.41,0.29,0.4,0.31,0,0.6
			c-0.1,0.09-0.2,0.19-0.3,0.28c-0.06,0.06-0.12,0.11-0.21,0.09c-0.1-0.03-0.06-0.12-0.08-0.2v-0.51c0.03-0.18-0.1-0.51,0.07-0.6
			C115.33,35.07,115.45,35.41,115.62,35.53z M117.32,33.12v0.54c0,0.13,0.01,0.27,0,0.4c-0.01,0.09,0.04,0.21-0.06,0.24
			c-0.06,0.02-0.17-0.05-0.24-0.1c-0.17-0.14-0.31-0.32-0.51-0.44c-0.09-0.06-0.1-0.16-0.01-0.23c0.21-0.17,0.42-0.34,0.63-0.51
			C117.26,32.93,117.32,32.97,117.32,33.12z M115.16,32.29c0.18-0.35,0.25-0.74,0.37-1.12c0.05-0.18,0.14-0.25,0.33-0.26
			c0.87-0.03,0.87-0.03,1.14,0.8c0.01,0.02,0.02,0.03,0.03,0.06c0.24,0.67,0.24,0.67-0.48,0.67h-0.37c-0.3,0-0.58,0-0.88-0.01
			C115.2,32.44,115.08,32.43,115.16,32.29z M115.6,33.34c0.42,0.31,0.42,0.31-0.01,0.64c-0.16,0.11-0.27,0.42-0.46,0.32
			c-0.2-0.1-0.05-0.39-0.09-0.59v-0.1c0.04-0.18-0.11-0.5,0.08-0.6C115.32,32.9,115.44,33.22,115.6,33.34z M107.35,34.96
			c0.04-0.1,0.13-0.06,0.21-0.07c0.01-0.07,0.07-0.07,0.12-0.08c0.04-0.03,0.09-0.05,0.12-0.08c0.06-0.07,0.13-0.06,0.21-0.07
			c0.04-0.03,0.09-0.04,0.13-0.07c0.72-0.33,1.44-0.67,2.16-0.99c1.24-0.56,2.48-1.1,3.71-1.65c0.27-0.11,0.54-0.24,0.81-0.35
			c0.07-0.03,0.16-0.11,0.21-0.02c0.06,0.11-0.07,0.15-0.15,0.18c-0.51,0.23-1.04,0.45-1.55,0.67c-1.56,0.67-3.12,1.33-4.69,2.01
			c-0.15,0.06-0.31,0.12-0.47,0.18c-0.04,0.03-0.09,0.05-0.13,0.07c-0.07,0.03-0.14,0.04-0.21,0.07c-0.04,0.02-0.1,0.04-0.14,0.06
			c-0.03,0.05-0.09,0.07-0.14,0.06C107.51,34.96,107.43,34.96,107.35,34.96c-0.03,0.06-0.07,0.07-0.13,0.07
			C107.24,34.95,107.3,34.96,107.35,34.96z M107.21,35.03c-0.03,0.06-0.08,0.06-0.13,0.06C107.11,35.03,107.16,35.03,107.21,35.03z
			 M107.06,35.1c-0.04,0.07-0.11,0.06-0.17,0.07C106.92,35.08,106.99,35.1,107.06,35.1z M106.24,35.42
			c0.05-0.02,0.11-0.03,0.17-0.05c0.06-0.03,0.12-0.05,0.18-0.08h0.03c0.04-0.03,0.08-0.04,0.11-0.06c0.03-0.05,0.09-0.06,0.15-0.06
			c-0.03,0.05-0.1,0.06-0.15,0.06c-0.03,0.05-0.07,0.06-0.11,0.06c-0.01,0-0.02,0-0.03,0.01c-0.05,0.03-0.11,0.05-0.17,0.08
			C106.36,35.39,106.3,35.41,106.24,35.42c-0.04,0.03-0.09,0.05-0.13,0.08C106.16,35.47,106.19,35.44,106.24,35.42z M106.1,35.5
			c-0.01,0.01-0.02,0.03-0.03,0.04C106.04,35.5,106.09,35.51,106.1,35.5z M92.22,42.62c-0.35,0.13-0.38,0.1-0.38-0.28
			c0-0.36,0.04-0.38,0.4-0.29c0.11,0.03,0.24,0.07,0.36,0.1c0.12,0.03,0.31,0.03,0.33,0.15c0.01,0.1-0.19,0.12-0.3,0.17
			C92.49,42.52,92.35,42.57,92.22,42.62z M92.58,41.82c0.79-0.1,1.52-0.18,2.24-0.28c0.01,0.03,0.01,0.06,0.01,0.09
			C94.13,41.89,93.45,42.37,92.58,41.82z M92.84,42.81c-0.05,0-0.14,0.02-0.13-0.07c0.01-0.03,0.08-0.07,0.12-0.1
			c0.41-0.17,0.82-0.31,1.27-0.12c0.23,0.1,0.47,0.14,0.71,0.2c-0.01,0.03-0.01,0.06-0.02,0.09H92.84z M95.1,45.88
			c0,0.2-0.08,0.28-0.28,0.27c-0.45-0.01-0.91-0.01-1.36,0.01c-0.24,0-0.3-0.1-0.29-0.31c0.01-0.42,0-0.84,0-1.26v-1.26
			c-0.01-0.2,0.07-0.29,0.28-0.28h1.36c0.19-0.01,0.29,0.06,0.29,0.27C95.09,44.18,95.09,45.02,95.1,45.88z M96.05,42.12
			c0,0.65,0,0.65-0.62,0.49c-0.38-0.09-0.78-0.18-1.16-0.28c-0.06-0.02-0.14-0.03-0.14-0.11c0-0.03,0.08-0.08,0.12-0.1
			c0.51-0.19,1.02-0.38,1.53-0.57c0.18-0.07,0.28-0.02,0.27,0.19C96.04,41.87,96.05,41.99,96.05,42.12z M97.97,44.62
			c0,0.43-0.01,0.85,0,1.29c0,0.17-0.06,0.24-0.24,0.24c-0.47-0.01-0.95,0-1.43,0c-0.17,0.01-0.24-0.06-0.24-0.24V43.3
			c0-0.17,0.07-0.24,0.24-0.24c0.47,0,0.95,0.01,1.43,0c0.2-0.01,0.24,0.1,0.24,0.28C97.96,43.76,97.97,44.19,97.97,44.62z
			 M96.85,41.68c0.2,0.07,0.39,0.13,0.58,0.21c0.07,0.03,0.18,0.07,0.19,0.12c0.01,0.08-0.1,0.11-0.17,0.15
			c-0.29,0.15-0.59,0.28-0.88,0.44c-0.24,0.13-0.3,0.04-0.29-0.19c0.01-0.1,0-0.2,0-0.31C96.29,41.49,96.29,41.49,96.85,41.68z
			 M96.82,41.35c0.16-0.13,0.34-0.08,0.51-0.1c0.76-0.1,1.53-0.19,2.28-0.28c-0.46,0.37-0.98,0.64-1.53,0.84
			c-0.25,0.1-0.51-0.14-0.76-0.22C97.15,41.53,96.97,41.48,96.82,41.35z M99.64,42.79h-2.82c0.43-0.29,0.82-0.45,1.2-0.63
			c0.03-0.01,0.07-0.01,0.1,0c0.51,0.18,1.03,0.37,1.54,0.55C99.66,42.74,99.65,42.77,99.64,42.79z M100.48,41.87
			c0,0.21-0.01,0.43,0,0.64c0,0.16-0.07,0.21-0.21,0.16c-0.55-0.2-1.1-0.4-1.65-0.6c-0.16-0.05-0.13-0.15-0.01-0.21
			c0.54-0.27,1.09-0.52,1.63-0.8c0.21-0.1,0.24,0.01,0.24,0.17V41.87z M100.79,42.41v-0.85c0.02-0.64-0.15-0.68,0.56-0.34
			c0.28,0.13,0.54,0.28,0.81,0.41c0.11,0.05,0.16,0.1,0.03,0.17c-0.4,0.24-0.79,0.49-1.19,0.73
			C100.82,42.66,100.79,42.58,100.79,42.41z M101.27,40.83c0.03-0.09,0.12-0.09,0.2-0.1c0.78-0.1,1.55-0.19,2.32-0.28
			c0.14-0.02,0.27-0.03,0.44-0.05c0.01,0,0.04,0.02,0.08,0.03c-0.02,0.03-0.03,0.08-0.07,0.1c-0.51,0.31-1.01,0.63-1.52,0.94
			c-0.08,0.05-0.17,0.05-0.26,0.01c-0.36-0.17-0.71-0.35-1.06-0.53C101.34,40.94,101.27,40.87,101.27,40.83z M104.08,42.81
			c-0.43,0.01-0.86,0-1.29,0h-1.33c-0.06,0-0.15,0.03-0.17-0.05c-0.03-0.08,0.06-0.11,0.11-0.15c0.37-0.23,0.72-0.45,1.09-0.69
			c0.11-0.07,0.21-0.03,0.32,0.03c0.44,0.23,0.89,0.44,1.33,0.66c0.06,0.03,0.17,0.06,0.15,0.15
			C104.26,42.85,104.15,42.81,104.08,42.81z M104.92,41.57c0,0.3-0.01,0.58,0,0.88c0.01,0.19-0.03,0.24-0.23,0.15
			c-0.53-0.27-1.07-0.52-1.61-0.78c-0.17-0.09-0.17-0.17-0.01-0.26c0.54-0.32,1.08-0.65,1.61-0.98c0.22-0.14,0.24-0.04,0.24,0.15
			V41.57z M105.22,42.33v-1.67c0-0.13,0.03-0.2,0.18-0.11c0.42,0.26,0.85,0.51,1.27,0.78c0.13,0.08,0.12,0.17,0,0.25
			c-0.42,0.3-0.83,0.59-1.23,0.9C105.21,42.65,105.22,42.51,105.22,42.33z M105.62,40.29c0.02-0.04,0.13-0.08,0.21-0.09
			c0.63-0.08,1.26-0.15,1.88-0.23c0.31-0.03,0.63-0.07,1.02-0.11c-0.02,0,0.07-0.02,0.09,0.01c0.04,0.08-0.03,0.12-0.09,0.17
			c-0.51,0.38-1.03,0.77-1.53,1.15c-0.12,0.1-0.23,0.02-0.31-0.03c-0.37-0.23-0.75-0.46-1.12-0.7
			C105.69,40.41,105.59,40.38,105.62,40.29z M108.86,42.78c-0.02,0.03-0.12,0.03-0.19,0.03h-2.85c-0.06,0-0.15,0.03-0.17-0.05
			c-0.03-0.08,0.05-0.12,0.1-0.16c0.38-0.3,0.77-0.59,1.16-0.87c0.09-0.06,0.19-0.14,0.34-0.05c0.49,0.32,0.99,0.63,1.48,0.93
			C108.79,42.65,108.9,42.68,108.86,42.78z M109.35,40.17v2.28c0,0.16-0.04,0.21-0.2,0.11c-0.55-0.35-1.11-0.7-1.67-1.03
			c-0.16-0.1-0.12-0.15,0-0.24c0.56-0.4,1.11-0.82,1.66-1.22c0.04-0.03,0.1-0.08,0.15-0.07C109.37,40.02,109.35,40.11,109.35,40.17z
			 M109.7,42.52c-0.09-0.05-0.04-0.17-0.04-0.25v-2.11c-0.01-0.17,0.07-0.21,0.19-0.11c0.48,0.36,0.96,0.72,1.44,1.08
			c0.1,0.08,0.02,0.1-0.03,0.13c-0.44,0.39-0.88,0.78-1.33,1.17C109.87,42.48,109.78,42.57,109.7,42.52z M110.02,39.75
			c0.03-0.05,0.17-0.08,0.28-0.09c0.83-0.1,1.67-0.2,2.49-0.3c0.16-0.02,0.31-0.04,0.48-0.06c0.05,0.01,0.15-0.04,0.16,0.06
			c0.01,0.03-0.04,0.1-0.09,0.13c-0.48,0.42-0.97,0.84-1.46,1.26c-0.18,0.16-0.34,0.23-0.58,0.03c-0.36-0.3-0.74-0.55-1.12-0.83
			C110.11,39.92,109.98,39.86,110.02,39.75z M112.86,42.81c-0.38,0.01-0.77,0-1.15,0c-0.48,0-0.96,0.01-1.43,0
			c-0.09,0-0.21,0.05-0.24-0.06c-0.03-0.08,0.07-0.14,0.12-0.18c0.44-0.37,0.88-0.74,1.32-1.12c0.16-0.14,0.27,0,0.36,0.06
			c0.41,0.3,0.82,0.59,1.21,0.92c0.12,0.11,0.43,0.16,0.36,0.33C113.34,42.9,113.05,42.8,112.86,42.81z M113.84,42.37
			c0,0.08,0.03,0.17-0.07,0.2c-0.08,0.03-0.12-0.03-0.17-0.08c-0.49-0.36-0.98-0.72-1.47-1.08c-0.23-0.17-0.28-0.31-0.03-0.52
			c0.51-0.42,1-0.86,1.51-1.29c0.05-0.04,0.1-0.11,0.17-0.08c0.1,0.03,0.06,0.13,0.06,0.2c0.01,0.45,0.01,0.91,0.01,1.36
			C113.84,41.52,113.84,41.95,113.84,42.37z M110.79,39.37c-2.39,0.27-4.78,0.57-7.16,0.85c-2.15,0.26-4.3,0.53-6.45,0.79
			c-1.51,0.18-3.01,0.36-4.52,0.54c-0.01-0.03-0.03-0.05-0.03-0.09c0.41-0.17,0.82-0.36,1.23-0.54c1.57-0.67,3.14-1.35,4.71-2.02
			c1.85-0.79,3.7-1.59,5.54-2.38c1.53-0.65,3.03-1.32,4.55-1.97c1.71-0.73,3.41-1.46,5.12-2.19c0.32-0.14,0.65-0.28,0.97-0.42
			c0.15-0.06,0.26-0.06,0.18,0.14c-0.21,0.49-0.12,1-0.13,1.51c-0.01,1.68,0,3.36,0,5.04c0,0.18,0.03,0.37-0.26,0.36
			C113.28,38.97,112.04,39.23,110.79,39.37z M113.84,115.29c-0.03,0.18-0.19,0.11-0.31,0.12c-0.08,0.02-0.16,0.01-0.26,0.01
			c-0.11-0.04-0.35,0.09-0.39-0.07c-0.03-0.11,0.24-0.17,0.37-0.24c0.07-0.03,0.15-0.06,0.22-0.09c0.11-0.04,0.23-0.17,0.34-0.09
			C113.89,115.01,113.85,115.17,113.84,115.29z M113.55,119.96c-0.19-0.1-0.4-0.19-0.6-0.3c-0.05-0.03-0.16-0.03-0.13-0.12
			c0.03-0.07,0.11-0.04,0.18-0.05c0.19,0,0.38,0.01,0.58,0c0.19,0,0.31,0.07,0.26,0.28C113.87,120.03,113.78,120.07,113.55,119.96z
			 M113.84,119.12c-0.02,0.15-0.14,0.13-0.24,0.14c-0.11,0.01-0.23,0-0.38,0c-0.1-0.03-0.37,0.07-0.38-0.05
			c-0.02-0.14,0.24-0.18,0.38-0.26c0.1-0.05,0.21-0.1,0.31-0.13c0.09-0.03,0.18-0.16,0.27-0.05
			C113.89,118.85,113.84,118.99,113.84,119.12z M113.78,116.19c-0.07,0.07-0.17-0.02-0.24-0.06c-0.25-0.13-0.55-0.2-0.85-0.46
			c0.37,0,0.66-0.01,0.95,0c0.1,0,0.19,0.02,0.19,0.14C113.84,115.93,113.9,116.09,113.78,116.19z M113.7,107.78h-0.99
			c0.32-0.26,0.62-0.32,0.87-0.46c0.07-0.04,0.16-0.1,0.22-0.04c0.1,0.1,0.04,0.24,0.04,0.36
			C113.84,107.73,113.78,107.78,113.7,107.78z M113.84,108.31c0.03,0.25-0.05,0.31-0.28,0.19c-0.2-0.11-0.41-0.19-0.61-0.29
			c-0.05-0.03-0.14-0.1-0.14-0.13c0.02-0.09,0.11-0.05,0.17-0.05c0.21,0,0.41,0.01,0.61,0
			C113.79,108.02,113.87,108.11,113.84,108.31z M113,111.84c0.09-0.01,0.17,0,0.27,0c0.08,0,0.16,0.01,0.24-0.01
			c0.3-0.03,0.37,0.12,0.34,0.38c-0.02,0.14-0.05,0.21-0.21,0.13c-0.23-0.11-0.47-0.22-0.7-0.33c-0.06-0.03-0.16-0.06-0.14-0.12
			C112.82,111.79,112.93,111.85,113,111.84z M112.71,111.6c0.32-0.26,0.62-0.32,0.87-0.46c0.07-0.03,0.16-0.1,0.22-0.03
			c0.08,0.1,0.03,0.24,0.03,0.36c0,0.1-0.08,0.13-0.17,0.13H112.71z M113.8,104.7c-0.07,0.1-0.17,0.01-0.24-0.03
			c-0.25-0.14-0.55-0.21-0.87-0.46h0.99c0.09,0,0.16,0.03,0.16,0.13C113.84,104.46,113.89,104.6,113.8,104.7z M112.36,103.69
			c0.43-0.83,0.85-1.66,1.28-2.48c0.02-0.04,0.07-0.11,0.11-0.1c0.09,0,0.08,0.09,0.08,0.15c0.01,0.44,0.01,0.86,0.01,1.29
			c0,0.4-0.01,0.79,0,1.19c0,0.17-0.06,0.24-0.24,0.24c-0.37-0.01-0.72-0.02-1.09,0C112.27,103.98,112.27,103.88,112.36,103.69z
			 M112.1,106c0-0.46,0.01-0.92,0-1.39c-0.01-0.23,0.05-0.31,0.29-0.2c0.42,0.2,0.84,0.4,1.26,0.58c0.15,0.06,0.19,0.15,0.19,0.31
			c-0.01,0.46-0.01,0.93,0,1.39c0,0.15-0.03,0.24-0.18,0.31c-0.44,0.18-0.86,0.39-1.29,0.59c-0.19,0.09-0.27,0.05-0.27-0.17
			C112.11,106.95,112.1,106.48,112.1,106z M112.1,109.81c0-0.48,0.01-0.95,0-1.43c0-0.19,0.07-0.24,0.24-0.17
			c0.44,0.21,0.9,0.43,1.35,0.63c0.13,0.06,0.15,0.15,0.15,0.27v1.42c0,0.12-0.01,0.21-0.15,0.27c-0.45,0.2-0.9,0.42-1.35,0.63
			c-0.16,0.08-0.24,0.04-0.24-0.17C112.11,110.78,112.1,110.29,112.1,109.81z M112.1,113.61c0-0.45,0.01-0.91,0-1.36
			c-0.01-0.24,0.05-0.32,0.29-0.21c0.4,0.2,0.81,0.39,1.22,0.58c0.17,0.07,0.24,0.17,0.24,0.36c-0.01,0.45-0.01,0.91,0,1.35
			c0,0.16-0.03,0.25-0.19,0.31c-0.43,0.19-0.85,0.4-1.29,0.6c-0.17,0.08-0.27,0.05-0.26-0.17
			C112.11,114.58,112.1,114.09,112.1,113.61z M112.1,117.43c0-0.46,0.01-0.92,0-1.39c-0.01-0.24,0.1-0.26,0.28-0.17
			c0.41,0.2,0.82,0.39,1.23,0.58c0.17,0.07,0.24,0.17,0.24,0.36c-0.01,0.45-0.01,0.91,0,1.36c0,0.15-0.04,0.24-0.19,0.31
			c-0.42,0.18-0.84,0.38-1.26,0.58c-0.2,0.1-0.31,0.07-0.3-0.19C112.11,118.38,112.1,117.91,112.1,117.43z M112.1,122.72
			c0.01-0.48,0-0.96,0-1.43c0-0.48,0.01-0.95,0-1.43c-0.01-0.21,0.07-0.26,0.26-0.17c0.43,0.2,0.85,0.4,1.29,0.59
			c0.14,0.07,0.19,0.16,0.19,0.31c-0.01,0.46-0.01,0.92,0,1.39c0,0.13-0.03,0.23-0.17,0.29c-0.44,0.2-0.88,0.42-1.32,0.62
			C112.19,122.97,112.09,122.93,112.1,122.72z M112.84,123c-0.03-0.1,0.25-0.17,0.39-0.25c0.09-0.04,0.19-0.08,0.28-0.11
			c0.09-0.03,0.19-0.15,0.28-0.07c0.1,0.1,0.05,0.25,0.03,0.37c-0.02,0.14-0.14,0.11-0.24,0.12c-0.1,0.01-0.2,0.01-0.34,0.01
			C113.13,123.03,112.89,123.17,112.84,123z M114.8,124.06c-0.18-0.01-0.37,0-0.54,0c-0.13,0-0.25-0.02-0.37,0
			c-0.34,0.05-0.45-0.07-0.44-0.42c0.02-0.24,0.08-0.35,0.33-0.33c0.34,0.01,0.68,0.01,1.01,0c0.37-0.01,0.25,0.25,0.27,0.44
			C115.09,123.95,115.05,124.08,114.8,124.06z M116.78,124.06c-0.18-0.01-0.37,0-0.57,0c-0.15,0-0.3-0.02-0.44,0.01
			c-0.33,0.04-0.42-0.1-0.41-0.42c0.01-0.27,0.1-0.36,0.35-0.34c0.37,0.01,0.72,0,1.09,0c0.35,0,0.23,0.26,0.24,0.44
			C117.06,123.93,117.04,124.08,116.78,124.06z M118.73,124.06c-0.19-0.01-0.38,0-0.58,0h-0.34c-0.5,0-0.5-0.01-0.46-0.51
			c0.01-0.16,0.05-0.24,0.21-0.24c0.39,0.01,0.79-0.01,1.19,0.01c0.35,0.02,0.17,0.3,0.2,0.47
			C118.98,123.94,118.94,124.08,118.73,124.06z M120.29,115.01c0,0.27-0.11,0.31-0.33,0.21c-0.41-0.19-0.81-0.39-1.23-0.58
			c-0.15-0.06-0.22-0.16-0.21-0.33c0.01-0.44,0.01-0.88,0-1.33c-0.01-0.17,0.04-0.27,0.2-0.34c0.44-0.2,0.86-0.4,1.29-0.6
			c0.17-0.08,0.28-0.04,0.27,0.17c-0.01,0.48,0,0.95,0,1.43C120.28,114.1,120.27,114.56,120.29,115.01z M118.51,120.74
			c-0.01-0.25,0.06-0.4,0.3-0.5c0.39-0.17,0.78-0.36,1.17-0.53c0.21-0.1,0.31-0.05,0.31,0.2c-0.01,0.46,0,0.92,0,1.39
			c0,0.47-0.01,0.93,0,1.39c0.01,0.24-0.1,0.27-0.29,0.18c-0.42-0.19-0.84-0.39-1.26-0.58c-0.17-0.07-0.23-0.19-0.22-0.37
			C118.53,121.53,118.53,121.13,118.51,120.74z M120.01,119.05c-0.44-0.19-0.86-0.4-1.29-0.59c-0.14-0.06-0.21-0.15-0.2-0.31
			c0.01-0.45,0.01-0.91,0-1.36c-0.01-0.15,0.04-0.25,0.18-0.31c0.44-0.2,0.86-0.41,1.29-0.6c0.19-0.09,0.3-0.04,0.29,0.19
			c-0.01,0.46,0,0.93,0,1.39v1.39C120.29,119.06,120.22,119.16,120.01,119.05z M118.73,119.25c-0.1-0.01-0.21-0.03-0.2-0.17
			c0-0.11-0.05-0.24,0.05-0.32c0.08-0.06,0.17,0.01,0.25,0.04c0.21,0.1,0.43,0.2,0.64,0.31c0.05,0.03,0.14,0.02,0.14,0.08
			c-0.01,0.09-0.1,0.08-0.17,0.08c-0.11,0.01-0.23,0-0.34,0v-0.01C118.98,119.25,118.85,119.25,118.73,119.25z M118.53,115.8
			c0.03-0.13,0.14-0.14,0.24-0.14c0.12-0.01,0.24-0.01,0.42-0.01c0.12,0.03,0.43-0.04,0.43,0.03c0,0.19-0.27,0.17-0.41,0.27
			c-0.1,0.07-0.23,0.1-0.34,0.15c-0.1,0.04-0.21,0.16-0.31,0.05C118.47,116.07,118.51,115.92,118.53,115.8z M118.52,112.12
			c-0.03-0.17,0.05-0.27,0.26-0.27h0.68c0.05,0,0.12-0.02,0.15,0.05c0.03,0.07-0.05,0.08-0.1,0.1c-0.24,0.11-0.49,0.23-0.73,0.33
			C118.56,112.42,118.52,112.39,118.52,112.12z M119.6,111.6h-0.85c-0.1,0-0.22-0.02-0.23-0.16c-0.01-0.1-0.04-0.24,0.04-0.32
			c0.1-0.08,0.19,0,0.29,0.04c0.25,0.12,0.51,0.24,0.76,0.35C119.61,111.54,119.6,111.57,119.6,111.6z M118.53,115.02
			c0.03-0.18,0.17-0.1,0.26-0.05c0.27,0.13,0.56,0.21,0.84,0.42c-0.35,0.06-0.65,0.05-0.97,0.02
			C118.43,115.37,118.51,115.15,118.53,115.02z M118.66,119.53c0.31-0.06,0.64-0.05,1.05,0.02c-0.37,0.17-0.64,0.3-0.91,0.42
			c-0.1,0.04-0.24,0.14-0.27-0.03C118.51,119.79,118.43,119.57,118.66,119.53z M119.1,123.07c-0.14,0-0.27,0-0.4-0.02
			c-0.26-0.04-0.2-0.25-0.17-0.4c0.04-0.2,0.19-0.08,0.29-0.03c0.23,0.1,0.44,0.2,0.67,0.31c0.03,0.02,0.1,0.04,0.1,0.07
			c0,0.07-0.07,0.07-0.12,0.07C119.35,123.07,119.22,123.06,119.1,123.07C119.1,123.07,119.1,123.07,119.1,123.07z M120.59,123.31
			c0.37-0.01,0.24,0.25,0.27,0.44c0.02,0.2-0.03,0.33-0.27,0.31c-0.18-0.01-0.36,0-0.54,0c-0.12,0-0.25-0.02-0.37,0
			c-0.34,0.05-0.45-0.07-0.43-0.42c0.01-0.24,0.07-0.35,0.32-0.33C119.91,123.32,120.25,123.32,120.59,123.31z M120.28,104.57V106
			c0,0.44-0.01,0.9,0,1.35c0.01,0.25-0.07,0.34-0.31,0.23c-0.42-0.19-0.84-0.39-1.26-0.58c-0.15-0.06-0.2-0.16-0.19-0.31v-1.36
			c0-0.14,0.03-0.24,0.17-0.31c0.44-0.2,0.9-0.41,1.35-0.62C120.21,104.32,120.28,104.38,120.28,104.57z M119.62,107.7
			c-0.31,0.12-0.61,0.09-0.92,0.09c-0.1,0-0.17-0.04-0.17-0.16c0-0.11-0.05-0.24,0.04-0.33c0.07-0.07,0.17-0.01,0.24,0.03
			C119.08,107.45,119.35,107.57,119.62,107.7z M118.59,101.05c0.1-0.03,0.12,0.08,0.16,0.14c0.13,0.28,0.28,0.54,0.42,0.81
			c0.31,0.58,0.6,1.18,0.94,1.75c0.1,0.16,0.03,0.22-0.14,0.21h-1.19c-0.18,0.01-0.26-0.08-0.25-0.26c0.01-0.41,0-0.82,0-1.22v-1.23
			C118.52,101.18,118.49,101.08,118.59,101.05z M118.53,104.32c0.03-0.15,0.17-0.11,0.28-0.11c0.1-0.01,0.21-0.01,0.33-0.01
			c0.14,0.03,0.31-0.04,0.47,0.04c-0.1,0.17-0.3,0.17-0.44,0.26c-0.08,0.06-0.18,0.09-0.28,0.12c-0.11,0.04-0.23,0.17-0.34,0.05
			C118.47,104.59,118.51,104.44,118.53,104.32z M118.53,108.17c0.03-0.15,0.17-0.14,0.27-0.15h0.34c0.13,0.03,0.42-0.06,0.43,0.05
			c0.02,0.16-0.26,0.17-0.4,0.26c-0.09,0.05-0.19,0.08-0.28,0.12c-0.1,0.04-0.22,0.15-0.31,0.06
			C118.47,108.45,118.51,108.3,118.53,108.17z M119.31,108.54c0.22-0.06,0.41-0.18,0.61-0.28c0.24-0.12,0.37-0.1,0.37,0.22
			c-0.02,0.44-0.01,0.88-0.01,1.33v1.42c0,0.2-0.08,0.27-0.27,0.18c-0.24-0.11-0.48-0.27-0.74-0.33c-0.7-0.16-0.76-0.62-0.78-1.25
			C118.47,109.16,118.6,108.72,119.31,108.54z M118.57,42.54c-0.06-0.04-0.05-0.12-0.05-0.18v-2.62c0-0.09-0.03-0.19,0.08-0.24
			c0.09-0.03,0.14,0.04,0.2,0.1c0.45,0.38,0.91,0.78,1.36,1.15c0.22,0.18,0.31,0.34,0.03,0.56c-0.49,0.37-0.96,0.78-1.43,1.18
			C118.7,42.53,118.64,42.58,118.57,42.54z M118.92,39.28c0.05-0.12,0.33-0.04,0.51-0.03c0.38,0,2.13,0.06,2.62,0.07
			c0.1,0,0.26-0.03,0.31,0.08c0.03,0.1-0.1,0.16-0.17,0.23c-0.41,0.35-0.85,0.67-1.24,1.04c-0.22,0.21-0.37,0.14-0.54-0.01
			c-0.38-0.33-0.77-0.66-1.13-1.01C119.14,39.52,118.85,39.47,118.92,39.28z M122.12,42.81c-0.48,0.01-0.97,0-1.46,0h-1.57
			c-0.07,0-0.16,0.03-0.18-0.04c-0.03-0.1,0.06-0.14,0.11-0.18c0.44-0.37,0.89-0.73,1.33-1.11c0.2-0.17,0.35-0.26,0.59-0.03
			c0.4,0.38,0.85,0.73,1.27,1.1c0.07,0.06,0.19,0.12,0.17,0.23C122.36,42.81,122.21,42.81,122.12,42.81z M122.7,42.32
			c0,0.18-0.04,0.23-0.2,0.1c-0.51-0.44-1.01-0.87-1.53-1.3c-0.08-0.06-0.06-0.09,0.01-0.14c0.51-0.43,1.02-0.85,1.53-1.28
			c0.15-0.13,0.18-0.05,0.18,0.1V42.32z M123.02,42.34v-2.52c0-0.09-0.02-0.18,0.1-0.21c0.04,0.03,0.07,0.04,0.1,0.07
			c0.51,0.42,1,0.84,1.51,1.26c0.13,0.1,0.14,0.2-0.01,0.32c-0.49,0.39-0.99,0.78-1.47,1.19C123.05,42.61,123.02,42.52,123.02,42.34
			z M123.43,39.4c0.02-0.03,0.12-0.03,0.19-0.03c0.49,0,2.5,0.08,3.02,0.08c0.06,0,0.15-0.03,0.18,0.04c0.04,0.1-0.06,0.1-0.11,0.14
			c-0.47,0.38-0.94,0.77-1.41,1.15c-0.12,0.11-0.21,0.11-0.34,0c-0.47-0.41-0.95-0.79-1.43-1.19
			C123.48,39.54,123.38,39.49,123.43,39.4z M126.84,42.76c-0.03,0.07-0.11,0.05-0.17,0.05h-3.1c-0.06,0-0.15,0.03-0.18-0.04
			c-0.03-0.08,0.07-0.11,0.11-0.15c0.49-0.4,0.98-0.79,1.46-1.19c0.08-0.07,0.16-0.14,0.26-0.05c0.53,0.44,1.07,0.87,1.6,1.31
			C126.84,42.69,126.86,42.74,126.84,42.76z M127.1,42.51c-0.07,0.03-0.11-0.05-0.17-0.1c-0.45-0.37-0.91-0.74-1.36-1.12
			c-0.15-0.12-0.2-0.23-0.02-0.37c0.48-0.37,0.95-0.77,1.43-1.14c0.19-0.15,0.17,0.03,0.17,0.13c0.01,0.41,0,0.82,0,1.23
			c0,0.38,0.01,0.77,0,1.15C127.16,42.37,127.18,42.48,127.1,42.51z M127.53,42.52c-0.1-0.05-0.06-0.18-0.06-0.28
			c-0.01-0.37-0.01-0.75-0.01-1.12c0-0.39,0-0.79,0.01-1.19c0-0.17,0.03-0.28,0.22-0.12c0.42,0.35,0.85,0.66,1.26,1.01
			c0.37,0.32,0.37,0.35,0,0.66c-0.37,0.32-0.77,0.63-1.16,0.93C127.72,42.47,127.62,42.57,127.53,42.52z M127.91,39.55
			c0.03-0.1,0.2-0.05,0.31-0.05c0.45-0.01,2.37,0.07,2.89,0.07c0.06,0,0.15-0.02,0.16,0.07c0.01,0.04-0.05,0.1-0.1,0.13
			c-0.45,0.36-0.92,0.71-1.38,1.09c-0.13,0.1-0.24,0.12-0.37,0c-0.43-0.35-0.86-0.69-1.29-1.04
			C128.03,39.75,127.87,39.67,127.91,39.55z M131.09,42.81h-3.03c-0.06,0-0.16,0-0.18-0.04c-0.04-0.07,0.04-0.12,0.09-0.16
			c0.51-0.4,1.01-0.8,1.52-1.19c0.1-0.08,0.18-0.04,0.28,0.03c0.47,0.4,0.96,0.78,1.44,1.19c0.03,0.03,0.1,0.07,0.08,0.13
			C131.24,42.84,131.15,42.81,131.09,42.81z M131.65,41.18v1.12c0,0.08,0,0.17-0.08,0.21c-0.1,0.05-0.15-0.03-0.21-0.07
			c-0.44-0.36-0.89-0.72-1.34-1.08c-0.16-0.12-0.21-0.23-0.03-0.37c0.47-0.37,0.93-0.75,1.41-1.11c0.19-0.14,0.24,0.01,0.24,0.17
			C131.66,40.43,131.65,40.81,131.65,41.18z M131.96,42.55c-0.1-0.05-0.06-0.17-0.06-0.25c-0.01-0.37-0.01-0.75-0.01-1.12
			c0-0.37,0.01-0.74,0-1.12c0-0.27,0.13-0.26,0.3-0.13c0.49,0.37,0.97,0.76,1.46,1.14c0.15,0.12,0.13,0.21-0.01,0.32
			c-0.48,0.36-0.96,0.71-1.43,1.07C132.13,42.52,132.04,42.58,131.96,42.55z M132.36,39.66c0.03-0.07,0.11-0.06,0.18-0.06
			c0.5,0,2.47,0.07,2.96,0.1c0.06,0.01,0.16,0.01,0.18,0.04c0.04,0.07-0.03,0.12-0.09,0.16c-0.48,0.37-0.96,0.71-1.44,1.08
			c-0.1,0.08-0.19,0.03-0.27-0.03c-0.48-0.37-0.96-0.75-1.44-1.12C132.4,39.79,132.32,39.74,132.36,39.66z M135.68,42.77
			c-0.03,0.03-0.12,0.04-0.18,0.04h-3c-0.06,0-0.15,0.03-0.17-0.05c-0.03-0.08,0.05-0.12,0.1-0.17c0.48-0.37,0.97-0.73,1.46-1.1
			c0.1-0.08,0.2-0.08,0.31,0.01c0.46,0.36,0.92,0.71,1.39,1.08C135.64,42.63,135.73,42.68,135.68,42.77z M136.05,42.54
			c-0.08,0.03-0.15-0.01-0.22-0.06c-0.47-0.37-0.95-0.75-1.43-1.13c-0.1-0.09-0.1-0.17,0.01-0.24c0.48-0.36,0.95-0.72,1.43-1.08
			c0.16-0.11,0.27-0.11,0.27,0.13v2.18C136.11,42.4,136.14,42.5,136.05,42.54z M136.41,42.57c-0.08-0.04-0.05-0.14-0.05-0.22
			c-0.01-0.37,0-0.72,0-1.09s-0.01-0.74,0-1.12c0-0.07-0.02-0.15,0.05-0.18c0.09-0.05,0.14,0.03,0.2,0.07
			c0.46,0.35,0.92,0.7,1.38,1.03c0.24,0.17,0.22,0.3-0.01,0.45c-0.44,0.31-0.89,0.65-1.34,0.96
			C136.56,42.52,136.51,42.63,136.41,42.57z M136.78,39.78c0.03-0.08,0.11-0.06,0.17-0.06c0.5,0,2.48,0.1,2.98,0.1
			c0.07,0,0.16-0.01,0.17,0.07c0.01,0.03-0.04,0.1-0.09,0.13c-0.47,0.34-0.95,0.68-1.42,1.03c-0.14,0.1-0.24-0.01-0.33-0.08
			c-0.47-0.34-0.94-0.7-1.4-1.05C136.82,39.88,136.75,39.85,136.78,39.78z M139.8,42.81c-0.45,0.01-0.91,0-1.36,0h-1.5
			c-0.06,0-0.15,0.03-0.17-0.06c-0.02-0.08,0.06-0.1,0.11-0.15c0.44-0.31,0.88-0.63,1.31-0.95c0.18-0.14,0.32-0.19,0.53-0.02
			c0.37,0.31,0.78,0.57,1.16,0.86c0.1,0.07,0.26,0.13,0.22,0.26C140.07,42.87,139.9,42.81,139.8,42.81z M140.54,42.32
			c0,0.2-0.03,0.31-0.24,0.16c-0.5-0.37-0.99-0.74-1.49-1.12c-0.08-0.05-0.06-0.1,0.01-0.16c0.51-0.36,1.01-0.72,1.52-1.08
			c0.18-0.14,0.21-0.03,0.21,0.12V42.32z M140.84,42.41v-2.18c0-0.13,0.01-0.25,0.19-0.12c0.48,0.36,0.96,0.71,1.45,1.05
			c0.12,0.1,0.2,0.19,0.03,0.31c-0.5,0.35-0.99,0.71-1.49,1.05C140.86,42.64,140.85,42.52,140.84,42.41z M141.31,39.9
			c0.03-0.1,0.16-0.04,0.24-0.05c0.45,0,2.33,0.07,2.82,0.08c0.06,0,0.15-0.03,0.17,0.04c0.03,0.08-0.05,0.12-0.1,0.16
			c-0.41,0.3-0.83,0.58-1.24,0.89c-0.17,0.13-0.33,0.12-0.51-0.01c-0.42-0.31-0.84-0.61-1.25-0.92
			C141.38,40.04,141.29,39.98,141.31,39.9z M144.38,42.81h-2.92c-0.06,0-0.17,0-0.18-0.03c-0.04-0.1,0.06-0.13,0.12-0.17
			c0.45-0.32,0.92-0.65,1.38-0.97c0.1-0.08,0.18-0.1,0.3-0.02c0.46,0.34,0.93,0.67,1.39,1.01c0.03,0.03,0.1,0.1,0.09,0.13
			C144.54,42.84,144.45,42.81,144.38,42.81z M144.98,42.39c0,0.12-0.01,0.25-0.18,0.13c-0.46-0.34-0.92-0.68-1.39-1.01
			c-0.17-0.11-0.18-0.22-0.01-0.33c0.46-0.32,0.92-0.64,1.39-0.96c0.16-0.11,0.19-0.05,0.19,0.1V42.39z M145.28,40.89
			c0-0.13-0.01-0.27,0-0.4c0.01-0.11-0.05-0.27,0.05-0.31c0.08-0.03,0.21,0.06,0.3,0.12c0.48,0.32,0.94,0.65,1.41,0.99
			c0.1,0.08,0.11,0.15,0,0.21c-0.18,0.1-0.35,0.24-0.59,0.21c-0.12-0.02-0.25-0.01-0.37-0.01C145.28,41.7,145.28,41.7,145.28,40.89z
			 M147.18,41.09c-0.41-0.31-0.85-0.59-1.26-0.89c-0.06-0.04-0.17-0.09-0.14-0.17c0.03-0.1,0.13-0.05,0.2-0.05
			c0.48,0,2.4,0.07,2.89,0.07c0.06,0,0.15-0.03,0.16,0.07c0,0.03-0.07,0.07-0.11,0.1c-0.42,0.3-0.85,0.6-1.27,0.89
			C147.49,41.21,147.36,41.22,147.18,41.09z M147.38,41.69c-0.02,0-0.03-0.02-0.05-0.03c0.02-0.02,0.03-0.03,0.03-0.05
			c0.02,0.01,0.04,0.01,0.05,0.02C147.44,41.68,147.42,41.69,147.38,41.69z M148.1,57.1v0.37c0,0.16-0.07,0.21-0.21,0.15
			c-0.26-0.11-0.51-0.11-0.76,0.01c-0.13,0.06-0.2,0-0.2-0.14V45.86c0-0.51,0-0.51,0.49-0.51c0.79,0,0.68-0.09,0.68,0.69
			C148.1,52.54,148.1,50.6,148.1,57.1z M149.37,44.77c0,0.21-0.09,0.28-0.29,0.27h-1.73c-0.56,0-1.12-0.01-1.67,0.01
			c-0.24,0-0.32-0.09-0.31-0.32c0.01-0.8,0-1.61,0-2.41c-0.01-0.22,0.06-0.31,0.29-0.31c1.15,0.01,2.29,0.01,3.44,0
			c0.2,0,0.28,0.08,0.28,0.28V44.77z M149.4,41c0,0.71,0,0.71-0.72,0.71c-0.28,0-0.58,0.08-0.85-0.14c-0.13-0.11-0.17-0.19,0-0.31
			c0.47-0.31,0.94-0.62,1.4-0.93c0.12-0.08,0.17-0.03,0.17,0.1V41z M142.03,39.61c-2.05-0.05-4.11-0.1-6.15-0.15
			c-3.11-0.09-6.22-0.18-9.32-0.26c-2.88-0.08-5.74-0.14-8.61-0.2c-0.24-0.01-0.31-0.08-0.31-0.31c0.01-1.99,0-3.98,0.02-5.96
			c0-0.2-0.1-0.33-0.17-0.5c-0.09-0.22-0.05-0.31,0.21-0.28c1.81,0.29,3.63,0.57,5.44,0.85c2.02,0.31,4.04,0.61,6.05,0.92
			c1.85,0.29,3.7,0.57,5.54,0.85c2.03,0.31,4.05,0.61,6.08,0.92c2,0.31,3.98,0.61,5.98,0.92c1.87,0.29,3.72,0.57,5.58,0.85
			c1.85,0.28,3.7,0.56,5.54,0.85c1.85,0.28,3.7,0.57,5.54,0.85c2.03,0.31,4.05,0.62,6.08,0.93c0.98,0.15,1.94,0.3,2.92,0.44
			c0.11,0.02,0.23,0.04,0.34,0.06h0.07c0.01,0.01,0.01,0.02,0.01,0.02c-0.03-0.01-0.05-0.01-0.08-0.02c-0.99,0-2.01,0.02-3.01,0
			c-1.39-0.03-2.76-0.07-4.15-0.11c-2.86-0.08-5.72-0.17-8.57-0.24c-2.14-0.06-4.29-0.1-6.43-0.17
			C147.77,39.79,144.91,39.7,142.03,39.61z M171.13,40.71c0.01,0.03-0.06,0.09-0.11,0.11c-0.4,0.23-0.8,0.45-1.21,0.67
			c-0.1,0.05-0.19,0.04-0.29-0.02c-0.43-0.24-0.86-0.48-1.29-0.72c-0.04-0.03-0.11-0.05-0.1-0.12c0.03-0.06,0.1-0.04,0.15-0.04
			c0.45,0,2.24,0.07,2.68,0.07C171.01,40.66,171.1,40.63,171.13,40.71z M166.68,40.6c0.02,0.08-0.07,0.11-0.12,0.14l-1.18,0.65
			c-0.12,0.07-0.22,0.08-0.35,0c-0.42-0.25-0.85-0.5-1.28-0.75c-0.05-0.03-0.14-0.06-0.1-0.14c0.03-0.07,0.11-0.04,0.18-0.04
			c0.44,0,2.22,0.07,2.68,0.07C166.57,40.53,166.66,40.51,166.68,40.6z M162.25,40.48c0.03,0.1-0.1,0.14-0.17,0.17
			c-0.37,0.23-0.77,0.44-1.14,0.66c-0.13,0.08-0.24,0.08-0.37,0c-0.43-0.27-0.86-0.53-1.29-0.8c-0.05-0.03-0.14-0.07-0.1-0.15
			c0.03-0.07,0.11-0.04,0.18-0.04c0.44,0,2.2,0.07,2.64,0.07C162.1,40.4,162.22,40.39,162.25,40.48z M157.84,40.38
			c0.01,0.04-0.08,0.1-0.13,0.14c-0.4,0.24-0.81,0.48-1.21,0.73c-0.16,0.11-0.29,0.08-0.43-0.02c-0.44-0.28-0.86-0.57-1.3-0.85
			c-0.04-0.03-0.12-0.04-0.1-0.11c0.02-0.06,0.09-0.05,0.14-0.05c0.48-0.01,2.38,0.06,2.85,0.07
			C157.73,40.29,157.84,40.27,157.84,40.38z M153.45,40.22c0.03,0.08-0.06,0.1-0.11,0.13c-0.43,0.28-0.85,0.56-1.27,0.84
			c-0.14,0.1-0.24,0.12-0.39,0.01c-0.43-0.3-0.86-0.58-1.29-0.86c-0.06-0.04-0.17-0.09-0.14-0.17c0.02-0.1,0.13-0.06,0.2-0.06
			c0.46,0,2.37,0.07,2.86,0.07C153.35,40.18,153.44,40.2,153.45,40.22z M149.74,42.31c-0.01-0.61-0.03-1.22-0.03-1.83
			c0-0.07-0.04-0.19,0.09-0.2c0.28,0.07,0.45,0.29,0.68,0.41c0.33,0.19,0.64,0.43,0.96,0.64c0.16,0.1,0.14,0.18,0,0.27
			c-0.46,0.3-0.92,0.58-1.37,0.88C149.87,42.61,149.74,42.62,149.74,42.31z M153.31,42.81h-2.96c-0.06,0-0.16,0.03-0.16-0.07
			c-0.01-0.03,0.05-0.1,0.1-0.12c0.47-0.31,0.95-0.61,1.42-0.92c0.1-0.06,0.19-0.05,0.28,0.01c0.47,0.31,0.93,0.63,1.4,0.95
			c0.03,0.02,0.09,0.05,0.06,0.1C153.43,42.83,153.36,42.81,153.31,42.81z M153.9,41.51v0.92c0,0.18-0.07,0.23-0.23,0.12
			c-0.48-0.31-0.95-0.64-1.43-0.96c-0.13-0.09-0.1-0.16,0.01-0.24c0.47-0.31,0.95-0.61,1.42-0.92c0.15-0.1,0.23-0.07,0.23,0.12
			C153.91,40.88,153.9,41.19,153.9,41.51z M154.15,42.37c0.01-0.3,0-0.59,0-0.88V40.6c0-0.21,0.08-0.27,0.26-0.15
			c0.49,0.31,0.97,0.62,1.46,0.93c0.14,0.1,0.15,0.17,0,0.27c-0.49,0.3-0.97,0.59-1.44,0.89C154.21,42.68,154.14,42.59,154.15,42.37
			z M157.67,42.81h-2.86c-0.06,0-0.15,0.03-0.17-0.06c-0.01-0.06,0.06-0.09,0.11-0.11c0.44-0.27,0.88-0.55,1.32-0.82
			c0.14-0.09,0.25-0.12,0.4-0.02c0.42,0.27,0.85,0.53,1.26,0.8c0.06,0.03,0.14,0.1,0.13,0.14
			C157.85,42.85,157.74,42.81,157.67,42.81z M158.34,42.41c0,0.19-0.08,0.22-0.23,0.12c-0.48-0.31-0.96-0.62-1.45-0.92
			c-0.08-0.05-0.09-0.09,0-0.14c0.49-0.3,0.98-0.6,1.46-0.9c0.18-0.12,0.21-0.01,0.21,0.15c-0.01,0.28-0.01,0.56-0.01,0.85
			C158.33,41.84,158.33,42.13,158.34,42.41z M158.57,42.44v-1.73c0-0.21,0.06-0.29,0.25-0.17c0.47,0.3,0.94,0.58,1.42,0.87
			c0.17,0.1,0.22,0.21,0,0.33c-0.48,0.27-0.95,0.56-1.43,0.84C158.65,42.69,158.57,42.64,158.57,42.44z M162.28,42.76
			c-0.03,0.09-0.14,0.05-0.21,0.05h-2.78c-0.06,0-0.15,0.03-0.17-0.06c0-0.03,0.07-0.07,0.11-0.1c0.43-0.27,0.86-0.52,1.3-0.78
			c0.15-0.09,0.27-0.1,0.43,0.01c0.38,0.25,0.79,0.48,1.19,0.71C162.21,42.64,162.31,42.67,162.28,42.76z M162.79,41.63
			c0,0.26,0.01,0.52,0,0.78c0,0.16-0.03,0.25-0.22,0.14c-0.43-0.27-0.86-0.53-1.3-0.79c-0.16-0.1-0.22-0.19-0.01-0.31
			c0.44-0.25,0.87-0.51,1.31-0.78c0.18-0.1,0.22-0.02,0.22,0.14V41.63z M163.1,42.4v-1.6c0-0.15,0.04-0.22,0.2-0.12
			c0.47,0.27,0.94,0.54,1.4,0.82c0.13,0.08,0.18,0.17,0.01,0.27c-0.46,0.26-0.92,0.51-1.39,0.78
			C163.12,42.68,163.1,42.57,163.1,42.4z M166.46,42.81c-0.44,0.01-0.86,0-1.3,0h-1.36c-0.06,0-0.16,0.03-0.17-0.06
			c-0.01-0.07,0.07-0.1,0.13-0.14c0.41-0.23,0.83-0.45,1.24-0.7c0.15-0.09,0.27-0.08,0.4,0c0.38,0.23,0.77,0.44,1.14,0.67
			c0.06,0.04,0.17,0.08,0.16,0.17C166.66,42.86,166.54,42.81,166.46,42.81z M167.21,41.69c0,0.24,0.01,0.47,0,0.71
			c0,0.17-0.02,0.28-0.23,0.16c-0.43-0.26-0.85-0.51-1.28-0.75c-0.21-0.11-0.16-0.21,0.01-0.3c0.44-0.24,0.87-0.47,1.3-0.72
			c0.17-0.09,0.2-0.02,0.2,0.13C167.22,41.16,167.21,41.42,167.21,41.69z M167.52,42.4c0.01-0.24,0.01-0.48,0.01-0.71V40.9
			c0-0.14,0.05-0.22,0.21-0.12c0.51,0.28,1.02,0.56,1.53,0.85c0.1,0.06,0.05,0.11-0.03,0.17c-0.48,0.25-0.95,0.51-1.42,0.77
			C167.61,42.67,167.51,42.63,167.52,42.4z M170.95,42.81h-2.71c-0.06,0-0.16,0.03-0.17-0.07c0-0.03,0.08-0.08,0.12-0.1l1.28-0.68
			c0.1-0.06,0.2-0.1,0.31-0.03c0.41,0.24,0.82,0.47,1.23,0.71c0.05,0.03,0.15,0.05,0.11,0.13C171.13,42.8,171.02,42.81,170.95,42.81
			z M171.74,42.43c0,0.2-0.06,0.28-0.26,0.17c-0.44-0.25-0.88-0.5-1.33-0.74c-0.19-0.1-0.17-0.19,0.01-0.28
			c0.44-0.23,0.87-0.46,1.31-0.7c0.19-0.1,0.27-0.05,0.27,0.16V42.43z M171.98,42.47v-1.46c-0.01-0.17,0.09-0.19,0.21-0.13
			c0.51,0.26,0.99,0.53,1.49,0.8c0.12,0.07,0.09,0.15-0.02,0.19c-0.49,0.25-0.99,0.51-1.48,0.75
			C172.04,42.68,171.97,42.63,171.98,42.47z M175.47,42.81h-2.91c0-0.03,0-0.05-0.01-0.09c0.46-0.24,0.92-0.47,1.39-0.71
			c0.11-0.06,0.22-0.08,0.35-0.01c0.4,0.23,0.82,0.44,1.23,0.65c0.03,0.02,0.09,0.06,0.09,0.09
			C175.6,42.83,175.52,42.81,175.47,42.81z M176.17,42.44c0,0.17-0.06,0.26-0.24,0.17c-0.44-0.25-0.88-0.51-1.33-0.74
			c-0.14-0.08-0.1-0.12,0-0.17c0.44-0.24,0.9-0.47,1.34-0.71c0.17-0.09,0.23,0.01,0.23,0.17V42.44z M176.65,42.74
			c-0.16,0.04-0.24,0.01-0.24-0.17V41.8c0-0.25,0-0.5-0.01-0.75c0-0.2,0.1-0.23,0.26-0.18c0.45,0.12,0.7,0.45,0.71,0.99
			C177.37,42.32,177.13,42.62,176.65,42.74z"/>
	</g>
	<path class="st0" d="M111.54,123.73c0.01,0.15,0.03,0.24,0.11,0.29L111.54,123.73z"/>
	<g>
		<path class="st0" d="M59.99,109.44h3.25v15.81h-3.25V109.44z"/>
		<path class="st0" d="M66.92,109.44h5.75c4.64,0,7.84,3.41,7.84,7.86v0.04c0,4.45-3.2,7.9-7.84,7.9h-5.75V109.44z M72.68,122.11
			c2.66,0,4.45-1.92,4.45-4.72v-0.05c0-2.8-1.79-4.77-4.45-4.77h-2.51v9.53H72.68z"/>
		<path class="st0" d="M83.4,109.44h11.13v3.09h-7.9v3.21h6.96v3.09h-6.96v3.32h8.01v3.09H83.4V109.44z"/>
		<path class="st0" d="M102.47,109.32h2.99l6.32,15.92h-3.39l-1.35-3.55h-6.24l-1.35,3.55h-3.31L102.47,109.32z M105.89,118.63
			l-1.96-5.13l-1.96,5.13H105.89z"/>
		<path d="M127.42,112.64h-4.49v-3.21h12.23v3.21h-4.49v12.6h-3.25V112.64z"/>
		<path d="M137.64,109.44h6.74c1.88,0,3.33,0.56,4.3,1.6c0.82,0.88,1.26,2.12,1.26,3.61v0.04c0,2.55-1.29,4.16-3.16,4.9l3.6,5.65
			h-3.79l-3.16-5.06h-2.55v5.06h-3.25V109.44z M144.18,117.12c1.58,0,2.49-0.9,2.49-2.24v-0.04c0-1.49-0.97-2.26-2.55-2.26h-3.22
			v4.54H144.18z"/>
		<path d="M157.94,109.32h2.99l6.32,15.92h-3.39l-1.35-3.55h-6.24l-1.35,3.55h-3.31L157.94,109.32z M161.35,118.63l-1.96-5.13
			l-1.96,5.13H161.35z"/>
		<path d="M166.16,109.32h3.58l3.86,11.13l3.86-11.13h3.5l-5.97,15.92h-2.87L166.16,109.32z"/>
	</g>
</g>
</svg>
